<svg xmlns="http://www.w3.org/2000/svg" width="405" height="241"><path fill="#7D3347" d="M326.313 17.813c9.174 7.53 15.07 17.57 17.687 29.187.323 3.504.381 6.982.375 10.5l-.005 2.94c-.19 11.3-3.068 21.277-7.636 31.607-.91 2.073-.91 2.073-.734 4.953l2.465-1.094c10.426-4.222 21.115-6.382 32.07-2.726A67.5 67.5 0 0 1 379 98l1.855 1.195c7.263 5.34 11.685 14.08 13.145 22.805 1.063 12.826-.795 22.16-8.7 32.39-14.237 16.148-33.882 19.355-54.108 22.165-52.192 5.482-52.192 5.482-94.169 33.968-5.294 7.248-5.294 7.248-7.648 15.727L229 230l-3 1c-2.19-4.38-1.183-9.254-.062-13.812 5.942-14.202 21.356-26.126 35.144-32.088 3.464-1.383 6.96-2.651 10.484-3.873 2.62-.937 5-1.901 7.434-3.227v-2c-4.724 1.951-4.724 1.951-9.27 4.277-8.49 4.733-17.304 6.039-26.77 3.442-5.993-2.197-10.105-6.093-12.96-11.719-.812-3.25-.812-3.25 0-7 2.417-3.875 5.127-7.453 8-11l-3.543.14q-2.322.057-4.644.11l-2.33.102c-4.026.069-5.981-.034-9.471-2.243-3.47-3.639-3.103-6.181-3.012-11.109l-3 1 .188 3.75c-.02 2.715-.172 4.213-1.25 6.75-2.925 2.264-5.36 1.831-8.938 1.5-2.026-2.026-1.23-5.98-1.25-8.75l-.062-2.172c-.034-4.568.456-7.475 3.312-11.078 3.644-2.43 5.712-2.162 10-2l2 5 2.375-2.5c3.464-2.768 6.403-3.69 10.836-3.535 4.677 1.736 7.46 5.477 10.502 9.322 2.465 3.06 3.678 4.518 7.521 5.748 2.911.285 2.911.285 4.766-2.035l-1.5-1.562c-1.996-3.245-1.716-5.7-1.5-9.438l-4-1c1-3 1-3 2.848-3.95l2.214-.737 2.223-.762L254 124l-.625-3.375L253 117l2-2c2.625.375 2.625.375 5 1l2 10 7 2-1 3h-2v2l5.957-.195C274 133 274 133 277 135v-6h11l1 5 2-1c4.24-.236 7.362-.328 11 2v-2c7.75-.125 7.75-.125 10 1l1-5h4l1 4h2l1-5c3.161 1.37 3.993 1.99 6 5l3-2h3l1-3h2l-1-7 3 1 1-3.25c1.737-4.177 4.326-5.386 8.355-7.121L349 111c2.103 1.816 2.969 2.904 3.844 5.594.936 2.654.936 2.654 3.687 3.375l2.969.531c2.969.531 2.969.531 5.5 1.5 1.219 2.531 1.219 2.531 2 5l2 1v2h2l1 7-3.187 1.813-1.93 1.113a188 188 0 0 1-4.695 2.574c-2.381 1.632-3.176 2.833-4.188 5.5-3.912-1.156-6.875-2.355-10-5v2h-23l-2.375.07-2.625.055-2.625.07C315 145 315 145 312 143l-3 2c-3.523.375-5.349.411-8.375-1.5L299 142l-1 3c-3.343.074-5.804.065-9-1l-1 1a82 82 0 0 1-4.812.063l-2.645-.028L278 145h-8v2l3.563-.187c4.534.008 7.494.934 11.437 3.187 1.063 2 1.063 2 1 4l-2 3-2.25-1c-2.889-1.228-2.889-1.228-6.75-1l2.125 1.813c4.488 4.5 8.802 10.925 8.946 17.363L286 177q11.609-1.794 23.212-3.625 3.94-.62 7.882-1.228a2983 2983 0 0 0 11.386-1.788l3.51-.534c16.049-2.577 32.589-7.411 43.01-20.825 7.36-10.813 8.022-20.135 7-33-1.27-5.954-4.21-10.084-9.016-13.781-6.641-4.08-13.774-5.31-21.39-3.715-14.022 3.787-23.925 12.625-32.707 23.941C317 124 317 124 314.27 123.742L312 123c-.45-3.468-.205-4.723 1.906-7.586l2.594-2.789c14.764-16.716 21.313-38.66 20.754-60.75-.68-10.374-3.248-19.327-10.942-26.562C319.053 19.35 311.424 16.688 302 17c-12.806 1.727-23.438 6.998-31.691 17.063C266.342 39.63 263.98 45.486 262 52l-.687 2.172c-3.014 11.134-1.444 22.38 1.015 33.422.846 4.286.972 8.056.672 12.406-1 1-1 1-4.25 1.063-4.534-1.285-5.379-2.592-7.707-6.47-6.108-15.188-5.01-35.915 1.293-50.734 6.847-14.095 18.301-26.12 33.101-31.796 13.678-3.508 29.207-2.386 40.875 5.75M343 119c-.934 4.531-.934 4.531 0 9h3v-8zm-87 9 1 3h2l-1-3zm94 1c-1.219 2.504-1.219 2.504-2 5 4.206 3.48 8.23 3.491 13.46 3.371 2.75-.196 2.75-.196 5.228-2.371l1.312-2c-5.881-4.798-10.574-6.475-18-4m-90 6c-.74 1.787-.74 1.787-1 4 .954 2.202.954 2.202 2.438 4.25l1.433 2.14L264 147l2-2c-.199-2.233-.199-2.233-.875-4.625l-.617-2.477L264 136zm-35 6v3l4-1v-2zm14 7v4l5-2-2-2z"/><path fill="#A74B68" d="M32 29h3c1.389 2.778.903 4.797.625 7.875l-.273 3.18c-.288 2.41-.689 4.617-1.352 6.945h2l.402 2.484.535 3.266.528 3.234A69 69 0 0 0 40 66c-3.75 3-3.75 3-6 3l1 3 2 1c-.52 5.132-1.711 9.014-4 13.625-1.887 3.818-3.372 7.15-4 11.375l-3.125.625c-5.314 1.52-8.533 5.057-11.25 9.75-1.202 5.05-1.198 9.056.563 13.875 1.974 2.996 3.809 4.798 6.812 6.75h3c1.805-2.12 1.805-2.12 3.563-4.875C38.293 110.35 51.424 100.475 67 94l1.886-.785c6.286-2.377 12.064-2.668 18.739-2.59l3.023-.035c9.008.036 14.797 2.16 21.352 8.41 2.752 4.465 2.525 8.907 2 14-.787 2.831-1.801 5.303-3 8l1.871.457c2.129.543 2.129.543 4.192 1.23 2.258.59 2.258.59 4.937-1.687 4.302-.558 6.276-.504 9.875 2 4.282 6.045 3.189 13.834 2.75 20.938l-.133 2.61c-.358 6.318-.358 6.318-1.492 7.452a92 92 0 0 1-5.062.063l-2.786-.028L123 154c1.059 2.228 1.936 3.93 3.625 5.75 2.122 3.473 1.631 6.21 1.375 10.25l-1 3h-3v-3l-3 5-3-1-1-3-2-1-.73 1.8c-1.522 2.636-3.046 3.73-5.582 5.387l-2.301 1.543c-2.49 1.325-4.61 1.862-7.387 2.27 3.711 6.778 3.711 6.778 10 11 15.39 3.555 31.373-2.024 46.305-5.692 8.733-2.119 17.058-2.519 26.007-2.558l3.553-.062c13.725-.062 24.097 3.739 34.229 13.285C223 201.312 223 201.312 223 205l-4-2v-2l-1.562-.75C215 199 215 199 212.063 197.125c-22.652-12.814-52.479-6.405-76.34-.568-5.123 1.23-9.954 1.83-15.223 1.818l-2.237-.005c-5.8-.13-10.346-1.155-15.263-4.37l-2.875-1.812c-2.774-2.856-3.763-5.461-5.125-9.188l-1.984.402C73.385 187.201 50.492 189.332 33 178c-6.661-5.252-11.772-12.451-13-21-.593-8.534-.1-15.993 3-24l-1.844-.898c-5.069-2.59-8.078-5.697-10.43-10.82-1.706-5.359-1.47-10.403.586-15.594a392 392 0 0 1 3.313-5.188c1.566-2.847 2.002-5.291 2.375-8.5h2l-.062-3.437C19 85 19 85 20 84l-.187-2.5C20.066 76.767 21.91 73.198 24 69l4 2-1-5-4-1 .688-2.625c.623-3.412.623-3.412-1.188-6.25-1.915-3.99-1.593-6.961-.5-11.125 1.37-3.012 3.067-5.734 4.875-8.5l1.355-2.203C30.736 30.365 30.736 30.365 32 29m35 75-2.648 1.313C52.222 111.564 40.206 120.588 34 133c4.678 4.678 14.07 4.142 20.375 4.25 19.278-.346 35.174-5.029 49.629-18.004 3.007-3.384 3.862-6.31 4.496-10.746-.222-3.623-.222-3.623-2.687-6.312C95.05 94.285 77.733 98.393 67 104m23.75 29.813C71.29 142.34 52.365 140.793 32 137l-1.45 3.293-.814 1.852c-2.787 7.027-1.724 14.23 1.198 21.027 4.456 7.957 11.09 12.542 19.691 15.266C64.037 181.57 83.165 182.778 96 177c2.431-2.42 3.677-4.87 5-8a118 118 0 0 1 3-4l-5-1 .125-3.187c-.12-3.662-.621-5.555-2.125-8.813-1.623-4.1-2.49-6.758-1-11l1.563-1.375c2.308-2.61 1.626-5.294 1.437-8.625-3.102 0-5.447 1.521-8.25 2.813M112 141l1 2Z"/><path fill="#B34670" d="M326.313 17.813c9.174 7.53 15.07 17.57 17.687 29.187.323 3.504.381 6.982.375 10.5l-.005 2.94c-.19 11.3-3.068 21.277-7.636 31.607-.91 2.073-.91 2.073-.734 4.953l2.465-1.094c10.426-4.222 21.115-6.382 32.07-2.726A67.5 67.5 0 0 1 379 98l1.855 1.195c7.263 5.34 11.685 14.08 13.145 22.805 1.063 12.826-.795 22.16-8.7 32.39-10.18 11.547-22.721 16.237-37.3 19.61l-2.914.691c-8.177 1.725-16.882 2.228-25.137.77-3.105-.485-5.707-.366-8.824-.024l-2.93.31L306 176l-1 3c-4.75-.875-4.75-.875-7-2v2l-16 1-2-6h5v4c3.488-.427 6.773-.932 10.144-1.94 4.472-1.23 8.908-1.955 13.489-2.646l5.633-.883q4.381-.68 8.766-1.348C352.2 166.773 352.2 166.773 375 149c7.36-10.813 8.022-20.135 7-33-1.27-5.954-4.21-10.084-9.016-13.781-6.641-4.08-13.774-5.31-21.39-3.715-14.022 3.787-23.925 12.625-32.707 23.941C317 124 317 124 314.27 123.742L312 123c-.45-3.468-.205-4.723 1.906-7.586l2.594-2.789c14.764-16.716 21.313-38.66 20.754-60.75-.68-10.374-3.248-19.327-10.942-26.562C319.053 19.35 311.424 16.688 302 17c-12.806 1.727-23.438 6.998-31.691 17.063C266.342 39.63 263.98 45.486 262 52l-.687 2.172c-3.014 11.134-1.444 22.38 1.015 33.422.846 4.286.972 8.056.672 12.406-1 1-1 1-4.25 1.063-4.534-1.285-5.379-2.592-7.707-6.47-6.108-15.188-5.01-35.915 1.293-50.734 6.847-14.095 18.301-26.12 33.101-31.796 13.678-3.508 29.207-2.386 40.875 5.75"/><path fill="#C62452" d="m87.625 90.625 3.023-.035c9.008.036 14.797 2.16 21.352 8.41 2.752 4.465 2.525 8.907 2 14-.787 2.831-1.801 5.303-3 8l1.871.457c2.129.543 2.129.543 4.192 1.23 2.258.59 2.258.59 4.937-1.687 4.302-.558 6.276-.504 9.875 2 4.282 6.045 3.189 13.834 2.75 20.938l-.133 2.61c-.358 6.318-.358 6.318-1.492 7.452a92 92 0 0 1-5.062.063l-2.786-.028L123 154c1.059 2.228 1.936 3.93 3.625 5.75 2.122 3.473 1.631 6.21 1.375 10.25l-1 3h-3v-3l-3 5-3-1-1-3-2-1-.687 1.75c-1.752 3.003-3.332 4.436-6.313 6.25-2.761.328-5.203.19-8 0v-5h-2c1.293-2.884 2.66-4.872 5-7l-5-2 .125-3.187c-.12-3.662-.621-5.555-2.125-8.813-1.623-4.1-2.49-6.758-1-11l1.5-1.375c2.334-2.528 2.186-5.3 2.5-8.625l-1.707.973c-2.48 1.11-4.281 1.321-6.98 1.464-4.444.354-8.16 1.407-12.329 2.93-2.389.762-4.493.874-6.984.633l4-1v-2l1.8-.445c10.77-2.914 20.753-8.06 28.2-16.555 1.999-4.138 2.586-7.396 2-12-5.21-5.154-10.929-5.626-18-6-8.018.44-14.934 2.251-22 6l-2.645 1.313c-7.918 4.075-15.15 9.07-21.168 15.687-2.187 2-2.187 2-5 2.313L36 124l-1 6-3 1c-.957 1.858-.957 1.858-1.562 4.125l-.758 2.457a196 196 0 0 0-1.617 6.23c-1.134 3.402-2.34 4.918-5.063 7.188-.402-6.338.227-10.323 3.059-15.996 1.079-2.072 1.079-2.072 1.441-4.816.677-2.964 2.32-4.144 4.5-6.188l1-3h3l.813-1.875C38 117 38 117 41 115l1-3 5-2 1-3c2.063-.687 2.063-.687 4-1v-2l2-2 1.336-1.469c1.96-1.804 3.902-2.849 6.289-4.031l2.414-1.219c8.056-3.486 14.775-4.76 23.586-4.656M112 141l1 2Z"/><path fill="#C84574" d="M189 73c2.75.063 2.75.063 6 1 5.169 5.985 4.41 12.416 4 20q1.259-2.4 2.5-4.812l1.406-2.708c1.296-2.486 1.296-2.486 1.094-5.48v-5h5c1.125 3.75 1.125 3.75 0 6l6 1c1.564 3.05 2.294 5.07 1.242 8.402A106 106 0 0 1 213 98l2 1 1-5 5 1v5h-3l2 3c.5 2.938.5 2.938 0 6-3.161 2.86-5.107 3.934-9.375 4.25L208 113l1 2 3-1 2 1v5c-3.75 1.125-3.75 1.125-6 0v5c-2.572 1.62-3.677 2.044-6.75 1.625L199 126l-1 2h-2l2 3c.243 2.344.243 2.344.23 5.07l-.005 2.965-.037 3.09-.002 3.113c-.046 7.622-.046 7.622-1.186 8.762-3.437.188-3.437.188-7 0-2.444-2.444-2.256-3.113-2.266-6.465l-.007-2.674.023-2.798-.023-2.788.007-2.677.007-2.453C188 132 188 132 190 129l-2-2-2.937.188C182 127 182 127 180.125 125.062c-1.504-4.093-1.379-7.75-1.125-12.062h-4v5c-1.875.625-1.875.625-4 1l-2-2c.375-3.125.375-3.125 1-6l-3-1c.241-6.146.241-6.146 2.402-8.578 1.478-1.21 3.034-2.324 4.598-3.422l-.875-1.54c-2.34-4.338-3.631-7.4-3.125-12.46 3.03-1.515 5.651-1.17 9-1 2.938 1 2.938 1 5 2l.813-3.75c.826-3.353 1.814-5.661 4.187-8.25m5 26-2 1v2h3z"/><path fill="#2D7894" d="M348 111c2.634 1.668 3.838 2.483 4.79 5.52.979 2.721.979 2.721 3.741 3.449l2.969.531c2.969.531 2.969.531 5.5 1.5 1.219 2.531 1.219 2.531 2 5l2 1v2h2l1 7-3.187 1.813c-.956.55-.956.55-1.93 1.113a188 188 0 0 1-4.695 2.574c-2.381 1.632-3.176 2.833-4.188 5.5-3.912-1.156-6.875-2.355-10-5v2h-23l-2.375.07-2.625.055-2.625.07C315 145 315 145 312 143l-3 2c-3.523.375-5.349.411-8.375-1.5L299 142l-1 3c-3.343.074-5.804.065-9-1l-1 1a82 82 0 0 1-4.812.063l-2.645-.028L278 145h-8v2l3.563-.187c4.534.008 7.494.934 11.437 3.187 1.063 2 1.063 2 1 4l-2 3-2.312-.937A111 111 0 0 0 276 154v-2l-2.062.813c-4.383.28-6.677-2.097-9.938-4.813l.438-2.437c.659-4.177 1.123-8.359 1.562-12.563l3.813-.125 2.144-.07C274 133 274 133 277 135v-6h11l1 5 2-1c4.24-.236 7.362-.328 11 2v-2c7.75-.125 7.75-.125 10 1l1-5h4l1 4h2l1-5c3.161 1.37 3.993 1.99 6 5l3-2h3l1-3h2l-1-7 3 1 1.063-3.25c1.876-4.49 4.638-5.722 8.937-7.75m-5 8c-.934 4.531-.934 4.531 0 9h3v-8zm7 10c-1.219 2.504-1.219 2.504-2 5 4.206 3.48 8.23 3.491 13.46 3.371 2.75-.196 2.75-.196 5.228-2.371l1.312-2c-5.881-4.798-10.574-6.475-18-4"/><path fill="#ED146F" d="M259 147v2l1.875.438C263 150 263 150 265 151v2h3l1 3c2.504 1.219 2.504 1.219 5 2v8l6 1-1 3h2v2l-7 1-1 3c-1.594 1.133-1.594 1.133-3.5 2.125-3.24 1.518-3.24 1.518-4.5 2.875-16.115 3.942-16.115 3.942-22 1v-2l-4-1v-2l-5-1-1-5h-2c-.717-6.815-.717-6.815 1.266-10.09 1.502-1.783 2.938-3.421 4.734-4.91h2l.5-2.25c3.808-6.982 12.407-7.954 19.5-6.75"/><path fill="#CE4B7B" d="M374 102h4v3l3.75-.312c3.34.011 3.958.051 6.563 2.374 6.04 10.516 7.655 22.254 4.687 34.126-4.216 11.942-13.817 20.613-24.687 26.562-6.484 3.027-13.373 4.645-20.313 6.25l-2.914.691c-8.177 1.725-16.882 2.228-25.137.77-3.105-.485-5.707-.366-8.824-.024l-2.93.31L306 176l-1 3c-4.75-.875-4.75-.875-7-2v2l-16 1-2-6h5v4c3.488-.427 6.773-.932 10.144-1.94 4.472-1.23 8.908-1.955 13.489-2.646l5.633-.883q4.381-.68 8.766-1.348C352.2 166.773 352.2 166.773 375 149c7.33-10.77 8.094-20.17 7-33-1.366-5.572-4.162-9.75-8-14"/><path fill="#CA3264" d="M189 73c2.75.063 2.75.063 6 1 3.93 5.389 4.542 9.386 4.25 15.938l-.055 2.36C199.15 94.2 199.077 96.1 199 98l-2 1c3.095 1.032 4.526.975 7.688.563l2.449-.31L209 99l-1 2c-2.75.917-4.36 1.109-7.187 1.063L197 102c.548 2.982.548 2.982 2 6 2.996 1.305 2.996 1.305 6 2l1 2c-4.834-.414-6.895-2.378-10-6l-1-3c-6.321 1.047-6.321 1.047-11 5.125L182 111l1-1a93 93 0 0 1 4-1l1-4 5-1-.625 3.688c-.475 3.66-.14 5.988 1.625 9.312l-2.437 1.125c-2.875 1.686-2.875 1.686-3.375 5.063L188 126l-6 1c-3.533-4.563-3.324-8.496-3-14h-4v5c-1.875.625-1.875.625-4 1l-2-2c.375-3.125.375-3.125 1-6l-3-1c.241-6.146.241-6.146 2.402-8.578 1.478-1.21 3.034-2.324 4.598-3.422l-.875-1.54c-2.34-4.338-3.631-7.4-3.125-12.46 3.03-1.515 5.651-1.17 9-1 2.938 1 2.938 1 5 2l.813-3.75c.826-3.353 1.814-5.661 4.187-8.25m5 26-2 1v2h3z"/><path fill="#27ABDB" d="m214 130 2 5 2.375-2.5c3.46-2.765 6.398-3.69 10.828-3.535 5.368 1.987 8.598 6.764 12.133 11.094 2.625 2.898 3.104 3.327 6.664 3.941v2l2 1c-2.687 1.625-2.687 1.625-6 3-2.875-.812-2.875-.812-5-2v4l2 1-3 3v-2l-3.543.14q-2.322.057-4.644.11l-2.33.102c-4.026.069-5.981-.034-9.471-2.243-3.47-3.639-3.103-6.181-3.012-11.109l-3 1 .188 3.75c-.02 2.715-.172 4.213-1.25 6.75-2.925 2.264-5.36 1.831-8.938 1.5-2.026-2.026-1.23-5.98-1.25-8.75l-.062-2.172c-.034-4.568.456-7.475 3.312-11.078 3.644-2.43 5.712-2.162 10-2m11 11v3l4-1v-2z"/><path fill="#1495E7" d="M112.059 120.629a1287 1287 0 0 1 4.75 1.875L119 123l3-2c4.302-.558 6.276-.504 9.875 2 4.282 6.045 3.189 13.834 2.75 20.938l-.133 2.61c-.358 6.318-.358 6.318-1.492 7.452-2.608.042-5.149-.006-7.75-.125l-2.172-.031c-4.04-.193-5.67-.508-8.894-3.164L112 148l-1.73-1.922c-3.84-4.817-5.52-8.975-6.27-15.078l-.375-2.75c.54-3.235 2.158-4.903 4.375-7.25 2-1 2-1 4.059-.371M112 141l1 2Z"/><path fill="#C82B5A" d="M101 131h2l.5 2.875c1.979 7.04 8.157 13.329 13.5 18.125 3.145.803 3.145.803 6 1l.25 1.688c.633 2.497.633 2.497 2.813 4.562 2.724 3.867 2.314 6.077 1.937 10.75l-1 3h-3v-3l-3 5-3-1-1-3-2-1-.687 1.75c-1.752 3.003-3.332 4.436-6.313 6.25-2.761.328-5.203.19-8 0v-5h-2c1.293-2.884 2.66-4.872 5-7l-5-2 .125-3.187c-.12-3.662-.621-5.555-2.125-8.813-1.588-4.01-2.715-6.884-1-11 2.563-1.312 2.563-1.312 5-2z"/><path fill="#D82E68" d="m278 22-1.5 1.375c-1.726 1.501-1.726 1.501-1.5 3.625h-2v2h-4l1 4h-2v2h-2v3h-2l.25 3.063c.03 4.281-1.03 7.91-2.25 12-3.401 11.826-2.312 22.675.328 34.53.846 4.287.972 8.057.672 12.407-1 1-1 1-4.25 1.063-4.534-1.285-5.379-2.592-7.707-6.47-3.068-7.63-3.398-15.26-3.356-23.406l.009-3.208c.115-8.627.657-17.424 5.304-24.979l3-1 2-3h2v-3l2-2 1-3h2l2-4h2v-2h2v-2c2.463-1.231 4.28-1.072 7-1"/><path fill="#A8748F" d="M348 111c2.634 1.668 3.838 2.483 4.79 5.52.979 2.721.979 2.721 3.741 3.449l2.969.531c2.969.531 2.969.531 5.5 1.5 1.219 2.531 1.219 2.531 2 5l2 1v2h2l1 7-3.187 1.813c-.956.55-.956.55-1.93 1.113a188 188 0 0 1-4.695 2.574c-2.381 1.632-3.176 2.833-4.188 5.5-3.912-1.156-6.875-2.355-10-5v2c-1.604.054-3.208.093-4.812.125l-2.708.07C338 145 338 145 335 143l1-1c.04-2 .043-4 0-6l-6-3v-2h3l1-3h2l-1-7 3 1 1.063-3.25c1.876-4.49 4.638-5.722 8.937-7.75m-5 8c-.934 4.531-.934 4.531 0 9h3v-8zm7 10c-1.219 2.504-1.219 2.504-2 5 4.206 3.48 8.23 3.491 13.46 3.371 2.75-.196 2.75-.196 5.228-2.371l1.312-2c-5.881-4.798-10.574-6.475-18-4"/><path fill="#863D54" d="M32 29h3c1.389 2.778.903 4.797.625 7.875l-.273 3.18c-.288 2.41-.689 4.617-1.352 6.945h2l.402 2.484.535 3.266.528 3.234A69 69 0 0 0 40 66c-3.75 3-3.75 3-6 3l1 3 2 1c-.506 5.534-1.956 9.56-4.562 14.438l-.999 1.927A538 538 0 0 1 29 94c-1.41-2.818-.509-4.173.438-7.125l.87-2.758L31 82h-4l-2-5c-1.945 2.918-2.453 4.625-3 8h2l-1 4v-2h-2l-2 3a100 100 0 0 1 0-5l1-1-.187-2.5C20.066 76.767 21.91 73.198 24 69l4 2-1-5-4-1 .688-2.625c.623-3.412.623-3.412-1.188-6.25-1.915-3.99-1.593-6.961-.5-11.125 1.37-3.012 3.067-5.734 4.875-8.5l1.355-2.203C30.736 30.365 30.736 30.365 32 29"/><path fill="#1E9DE3" d="m167.066 121.902 2.496.035 2.504.028L174 122l1 7 3.375.875C182 131 182 131 184 133c1.487 3.887 1.147 8.087 1.125 12.188l.012 2.232c-.01 5.453-.01 5.453-1.137 6.58-3.437.188-3.437.188-7 0l-2-2-2 2c-2.715.328-5.252.13-8 0-2.806-2.806-1.883-10.282-2-14 .053-3.088.195-6.166.375-9.25l.13-2.275c.435-6.425.435-6.425 3.561-6.573M174 143l1 3Z"/><path fill="#DC33A0" d="M255 115c2.625.375 2.625.375 5 1l2 10 7 2-1 3h-2l-1 9-2-4h-3c.516 2.683 1.324 4.649 2.563 7.125C264 146 264 146 264 148l2.313.875C269 150 269 150 272 152c2.113.633 2.113.633 4 1l-2 1 2.313 2.25L279 159l1.75 1.75c1.958 3.525 2.004 7.275 2.25 11.25l-4 1 2-1v-2h-2l-1-2a78 78 0 0 0-5-2v-8l-5-2v-3h-3v-2l-6-2v-2l-1.898.07-2.477.055-2.46.07C250 147 250 147 248 145l4-3-1.5-1.562c-1.996-3.245-1.716-5.7-1.5-9.438l-4-1c1-3 1-3 2.848-3.95l2.214-.737 2.223-.762L254 124l-.625-3.375L253 117zm1 13 1 3h2l-1-3z"/><path fill="#139DEA" d="M154 130c4.296 2.148 4.296 2.148 6 5 2.202 6.939 2.254 12.185 0 19-2.563.081-5.124.14-7.687.188l-2.186.076c-4.586.062-7.553-.313-11.127-3.264-3.062-4.403-2.767-9.872-2-15 4.759-6.261 9.497-6.944 17-6m-7 11 1 3 3-1v-2z"/><path fill="#BB567C" d="M377 146c1 3 1 3 1 5a105 105 0 0 1-5 4l1 4-2.75.375c-2.86.55-4.81 1.089-7.25 2.625l-1 2h-2v3l4 1v-2l4 1c-11.665 5.939-25.927 9.154-39 9.125l-3.562.008C323 176 323 176 319.93 175.465c-3.1-.492-5.693-.369-8.805-.028l-2.93.31L306 176l-1 3c-4.75-.875-4.75-.875-7-2v2l-16 1-2-6h5v4c3.488-.427 6.773-.932 10.144-1.94 4.472-1.23 8.908-1.955 13.489-2.646l5.633-.883q4.381-.68 8.766-1.348c19.394-2.964 38.72-6.081 51.968-22.183z"/><path fill="#F51FA8" d="M248.813 148.813 251 150l-2 1-1 31-3 1-2-1v-2l-4-1v-2l-5-1-1-5h-2c-.717-6.815-.717-6.815 1.266-10.09 1.502-1.783 2.938-3.421 4.734-4.91h2l.688-2.312c2.048-4.195 4.453-6.225 9.125-4.875"/><path fill="#EE136E" d="m252 146 3 1c.982 4.053 1.082 7.839 1 12l2 1 1-6h1c.953 4.763 1.083 9.167 1 14l3 1-2 1a294 294 0 0 0-3 7l-2 3 5-3 4 3c-1.67 1.67-3.846 1.643-6.125 2.063l-2.82.535c-3.38.445-6.649.428-10.055.402q.178-6.112.372-12.225.066-2.079.125-4.159.088-2.99.187-5.98l.11-3.633C248 154 248 154 249 151l-2-2c2.313-1.562 2.313-1.562 5-3"/><path fill="#AF4A71" d="M320 16c4.703 2.822 8.83 5.793 11 11l-1 2-1.434-1.39C320.698 20.308 312.888 16.64 302 17c-11.946 1.61-21.705 6.199-30 15-2.18 2.9-4.115 5.902-6 9l-2 3v-6h2v-3h2v-2h2l-1-4h4v-2h2c-.702-2.85-.702-2.85-2-4h-2v2h-2v2a622 622 0 0 1-4.598 3.691C262.66 32.317 262.175 33.634 262 36h-2v3c-1.375 1.563-1.375 1.563-3 3l-2 2c-1-3-1-3-.102-4.91C260.648 30.71 267.667 20.667 277 16l3 1a66 66 0 0 0 4.5-1.937c10.355-3.972 25.457-4.122 35.5.937"/><path fill="#089BF4" d="M130 123c2.256 2.24 2.947 3.576 3.34 6.749-.015 1.026-.03 2.053-.047 3.11l-.03 3.38c-.024 1.158-.05 2.317-.076 3.511l-.04 3.559A951 951 0 0 1 133 152h-7c-1.108-4.053-1.337-8.071-1.562-12.25l-.131-2.258q-.158-2.745-.307-5.492l-4-1-1 5-3-1v-5h-7v3h-2v-6h2v-2c6.625-1.125 6.625-1.125 10 0v-2c3.842-1.383 7.074-.928 11 0"/><path fill="#1FA3E4" d="M193.5 117.063c3.077 1.154 4.062 1.982 5.5 4.937-.312 3.25-.312 3.25-1 6h-2l2 3c.243 2.344.243 2.344.23 5.07l-.005 2.965-.037 3.09-.002 3.113c-.046 7.622-.046 7.622-1.186 8.762-3.437.188-3.437.188-7 0-2.444-2.444-2.256-3.113-2.266-6.465l-.007-2.674.023-2.798-.023-2.788.007-2.677.007-2.453C188 132 188 132 190 129l-2-2c-.552-6.07-.552-6.07 1.188-9 1.812-1 1.812-1 4.312-.937"/><path fill="#8F324E" d="M230 165h1v6h2l1 5 2.438.375L239 177l1 2 3 1v2c13.113.572 13.113.572 25-4.062l2-1.938 3-1 1-2c2.649-.594 5.292-.742 8-1v-7c3.324 4.335 4.12 6.471 4 12h6v1h-7v-4c-3.041 1.67-3.041 1.67-4 4 2.922 1.461 5.274.814 8.5.5 6.278-.611 6.278-.611 8.5.5v-2l7 1 1-2c5.678-1.654 11.221-2.513 17-1l2.875.563L328 176v1l-2.87.427q-5.34.796-10.68 1.6-2.298.344-4.596.686c-11.489 1.7-11.489 1.7-22.884 3.93-3.002.544-5.932.481-8.97.357h-3l-3-1v-2l7-2v-3c-4.724 1.951-4.724 1.951-9.27 4.277-8.49 4.733-17.304 6.039-26.77 3.442-5.89-2.16-10.257-6.08-12.96-11.719-.312-3.937-.312-3.937 0-7"/><path fill="#D24179" d="M387 109c4.722 5.338 4.193 11.99 4.188 18.75l.001 2.402c-.052 5.792-.614 11.25-2.189 16.848h-2l-1 3h-3l-.75 2.313c-1.371 2.948-2.485 4.045-5.25 5.687h-2v3c-3 2-3 2-6 2v3h-4v2h-5l-1-2h2v-2h2l1-3c2.066-.95 2.066-.95 4.563-1.687l2.503-.762L373 158v-4c1.375-1.75 1.375-1.75 3-3h2l-1-3a110 110 0 0 1 3-7l1 3 2-5h2v-2h2c-.138-4.125-.287-8.25-.437-12.375l-.12-3.562-.127-3.399-.11-3.142c-.048-2.516-.048-2.516-1.206-4.522z"/><path fill="#B3506D" d="m181.313 183.75 3.552-.062c13.725-.062 24.097 3.739 34.229 13.285C223 201.312 223 201.312 223 205l-4-2v-2l-1.562-.75c-1.934-.992-3.821-2.075-5.688-3.187-3.77-2.184-7.643-3.622-11.75-5.063v-2c-2.076-.553-3.844-1-6-1h-2v-2l-16 1v1h-13q-3.846.45-7.687.938l-2.108.263c-4.409.556-8.808 1.16-13.205 1.799v-2a4026 4026 0 0 1 10.063-2.437l2.857-.698c9.575-2.302 18.551-3.072 28.393-3.115"/><path fill="#9D284F" d="M61 100c.25 2.313.25 2.313 0 5-2.044 1.976-3.118 3-6 3v4c-1.793 1.746-1.793 1.746-4.187 3.438-2.784 2.021-5.285 3.92-7.563 6.5C41 124 41 124 38.188 124.312L36 124l-1 6-3 1c-.957 1.858-.957 1.858-1.562 4.125l-.758 2.457a196 196 0 0 0-1.617 6.23c-1.134 3.402-2.34 4.918-5.063 7.188-.402-6.338.227-10.323 3.059-15.996 1.079-2.072 1.079-2.072 1.441-4.816.677-2.964 2.32-4.144 4.5-6.188l1-3h3l.813-1.875C38 117 38 117 41 115l1-3 5-2 1-3c2.063-.687 2.063-.687 4-1v-2c2.54-3.176 5.002-4 9-4"/><path fill="#D32257" d="M101 131h2l.5 2.875c1.314 4.79 4.491 8.037 7.723 11.695 1.917 2.621 2.513 4.218 2.777 7.43-.755 3.182-1.536 6.073-3 9h-5v1h-6c-3.329-16.168-3.329-16.168 0-24 .455-2.664.726-5.309 1-8"/><path fill="#8C5E76" d="M336 126c1.563 1.25 1.563 1.25 3 3-.312 2.188-.312 2.188-1 4 1.925 1.15 1.925 1.15 4 1a47 47 0 0 1 7.813 3.625c4.05 1.747 6.81 1.601 11.187 1.375l-7-1v-1l2.082-.113 2.73-.2 2.708-.175c2.786-.575 3.721-1.333 5.48-3.512l-2-3 1.813 1c2.24 1.208 2.24 1.208 5.187 1v5l-3.187 1.813c-.956.55-.956.55-1.93 1.113a188 188 0 0 1-4.695 2.574c-2.381 1.632-3.176 2.833-4.188 5.5-3.912-1.156-6.875-2.355-10-5v2c-1.604.054-3.208.093-4.812.125l-2.708.07C338 145 338 145 335 143l1-1c.04-2 .043-4 0-6l-6-3v-2h3l1-3h2z"/><path fill="#714757" d="m36 124 4 1-5 8c11.207 5.253 25.385 3.184 37.297 2.121L75 135l1 1 1.688-.656c5.364-1.958 9.61-2.655 15.312-2.344-2.665 2.665-5.686 3.422-9.187 4.563-.648.22-1.296.442-1.963.67-16.208 5.359-33.447 2.822-49.85-.233-2.485 8.044-3.362 14.665-2 23-3.18-3.18-3.08-6.796-3.25-11.125.04-4.682 1.146-8.835 2.496-13.297.735-2.512 1.278-5.006 1.754-7.578l4 1z"/><path fill="#752A41" d="m163 187 7 1v-1h22v2l6-2-1 2 3 2-3.855-.29c-20.678-1.375-40.317.929-60.422 5.847-5.123 1.23-9.954 1.83-15.223 1.818l-2.235-.005c-7.19-.162-12.38-1.837-17.827-6.62L99 190l2.688.938c10.367 3.325 21.339 2.75 31.886.5 2.307-.416 4.34-.51 6.676-.438 3.72.184 3.72.184 7-1 5.26-1.403 10.338-1.16 15.75-1z"/><path fill="#407BC7" d="M277 129h5l-1.5 1c-2.369 3.159-1.624 6.107-1.5 10l-1 2h6v2l4 1h-18v2l3.563-.187c4.534.008 7.494.934 11.437 3.187 1.063 2 1.063 2 1 4l-2 3-2.312-.937A111 111 0 0 0 276 154v-2l-2.062.813c-4.383.28-6.677-2.097-9.938-4.813l.438-2.437c.659-4.177 1.123-8.359 1.562-12.563l3.813-.125 2.144-.07C274 133 274 133 277 135z"/><path fill="#D44179" d="m278 22-1.5 1.375c-1.726 1.501-1.726 1.501-1.5 3.625h-2v2h-4l1 4h-2v2h-2v3h-2v7h-2v2h-2l-.621 3.902-.817 5.035-.408 2.577-.4 2.45-.365 2.27C257 65 257 65 256 66q-3.5.061-7 0v-6h2l-.125-2.875C251 54 251 54 253 52a278 278 0 0 0-1-4c.438-2.75.438-2.75 1-5l3-1 2-3h2v-3l2-2 1-3h2l2-4h2v-2h2v-2c2.463-1.231 4.28-1.072 7-1"/><path fill="#C62754" d="M32 32h2c.352 5.63-.056 9.936-2.266 15.137C30.724 49.7 30.34 52.277 30 55h2v-2h3q.546 2.371 1.063 4.75l.597 2.672c.338 2.565.152 4.149-.66 6.578-1.625.813-1.625.813-4 1-3.25-2.125-3.25-2.125-6-5-.375-2.812-.375-2.812 0-5l-1.937-.5C22 56 22 56 21 52.375c-.372-4.735 1.085-8.646 4-12.375q1.995-1.01 4-2c1.767-3.033 1.767-3.033 3-6"/><path fill="#D32B62" d="m181.5 97.813 2.844-.043c2.716.235 4.335.845 6.656 2.23v2c-5.75 3-5.75 3-8 3l-.875 2.313C181 110 181 110 179 113h-4v5c-1.875.625-1.875.625-4 1l-2-2c.375-3.125.375-3.125 1-6l-3-1c.487-6.327.487-6.327 2.813-9.375 3.68-2.734 7.185-2.782 11.687-2.812"/><path fill="#A12748" d="m22 161 1 2 2 1 1 3 5-2 1.625 3.063C36.751 173.838 43.527 176.599 50 179c3.278.492 5.686.4 9 0v2l8 2v1l5 1v1c-14.846.444-29.04-.148-41.16-9.703-3.86-3.639-6.546-7.525-8.84-12.297z"/><path fill="#238ECE" d="M154 130c4.296 2.148 4.296 2.148 6 5 2.202 6.939 2.254 12.185 0 19-2.563.081-5.124.14-7.687.188l-2.186.076c-4.586.062-7.553-.313-11.127-3.264-3.062-4.403-2.767-9.872-2-15 4.759-6.261 9.497-6.944 17-6m-15 5c-1.262 2.525-1.099 4.312-1.062 7.125l.027 2.758L138 147l3 1v2l8 1 1-2-1-2c-3.03-.658-3.03-.658-6-1v-3l2-1v-3h8v12h5c1.611-4.833 1.57-9.108-.375-13.812-1.417-3.186-1.417-3.186-3.625-5.188-5.53-.754-10.573-.713-15 3m8 6 1 3 3-1v-2z"/><path fill="#B34362" d="m107 112 2 3-1 3c2.51-1.255 2.871-2.5 4-5 1 3 1 3-.312 5.688L110 121h-2l-.937 1.938C106 125 106 125 105 126c.467 4.044 1.156 8.02 2 12h-3c-1-1-1-1-1.062-4.062L103 131h-2l.313 3.75c.019 2.203.019 2.203-.313 4.25-2.5 2.5-2.5 2.5-5 4 .875-3.875.875-3.875 2-5q.552-3.493 1-7l-1.707.973c-2.48 1.11-4.281 1.321-6.98 1.464-4.444.354-8.16 1.407-12.329 2.93-2.389.762-4.493.874-6.984.633l4-1v-2l1.8-.445c10.77-2.914 20.753-8.06 28.2-16.555 1.25-2.63 1.25-2.63 2-5"/><path fill="#CC3468" d="M189 73c2.75.063 2.75.063 6 1 4.668 5.651 4.463 10.893 4 18h-2l-1 5-3 1-.687-3.187c-.87-3.178-1.34-3.838-3.938-6.188-2.595-2.868-2.767-3.503-2.875-7.187.194-3.634.79-5.84 3.5-8.438"/><path fill="#C82C5C" d="M179 83c5.395 1.872 8.947 5.256 12 10 .875 3.438.875 3.438 1 6l-2.875-.937c-3.13-.925-6.059-1.24-9.312-1.438-3.438-.287-4.549-.425-7.375-2.562C169.962 90.51 169.906 88.31 170 84c3.072-1.536 5.602-1.227 9-1"/><path fill="#BF3B69" d="M195 103c2.04 2.04 3 3.083 3 6l2.25.875c2.295.939 4.532 2.016 6.75 3.125v10l-7 1-2-6h-4c-2.619-4.776-1.831-8.844-1-14l-5 1-1 4-4 1v2l-2-1q1.432-1.724 2.875-3.437l1.617-1.934c2.857-3.086 5.44-3.044 9.508-2.629"/><path fill="#15A9ED" d="M214 130v9h-3l-2 13h-7a652 652 0 0 1-.125-6.625l-.07-3.727c.195-3.646.72-6.317 2.195-9.648 3.644-2.43 5.712-2.162 10-2"/><path fill="#C63B70" d="m262 45 2 1-.875 2.754c-3.976 13.46-3.843 25.159-.797 38.84.846 4.286.972 8.056.672 12.406l-1 1c-3.437-.187-3.437-.187-7-1-1.437-2.062-1.437-2.062-2-4h2l1 2h3l-1-8-1 1-2-1v-4l3-1-1.016-2.918c-1.288-4.53-1.061-8.736-.734-13.394l.156-2.535C257.355 52.29 257.355 52.29 260 47h2z"/><path fill="#B47A93" d="M326.313 17.813C333.288 23.52 337.284 29.829 341 38l-2 1-3-1 1-3c-2.716-2.874-2.716-2.874-6-5a90 90 0 0 1-2.25-4.312c-3.135-5.735-6.901-8.153-12.937-10.438-10.844-2.974-23.656-2.764-33.88 1.973L280 18l-2-1c10.797-12.008 36.708-7.278 48.313.813"/><path fill="#B24266" d="M25 76c2 2 2 2 4 5l2 1c-.551 5.239-1.43 9.974-3 15l-10 2v-6h3l-2-1 1-6 3 1 1-2h-2c-.187-3.375-.187-3.375 0-7z"/><path fill="#B77E9F" d="M340 120h1v5h2v3l1.652-.656c5.707-2.107 10.274-2.633 16.348-2.344-3.228 2.152-4.284 2.2-8 2v2h-3l-1 5c4.467 3.314 8.62 3.66 14 4-2 2-2 2-5.625 2.375-4.143-.083-7.046-1.383-10.613-3.402-1.905-1.122-1.905-1.122-4.762-1.973l-3 1-.375-3.312c-.38-3.762-.38-3.762-2.625-6.688l1-3 2 3z"/><path fill="#B44D73" d="m325 101 .375 1.875c.968 3.292 2.794 4.237 5.625 6.125l-1.54 1.504c-4.388 4.332-8.512 8.759-12.46 13.496l-5-1c-.518-3.657-.096-4.864 2.082-7.937a176 176 0 0 1 2.73-3.063c3.105-3.49 5.915-6.892 8.188-11"/><path fill="#5289D1" d="m111.91 120.488 2.153.825 2.16.8C118 123 118 123 119 125h-10v2h-2v7h2l1-2 4 1-.176 2.598c-.462 7.81-.462 7.81 2.676 14.714L119 153c-6.65-2.03-9.605-7.225-13-13-1.128-3.007-1.703-5.81-2-9l-.375-2.75c.54-3.235 2.158-4.903 4.375-7.25 2-1 2-1 3.91-.512M112 141l1 2Z"/><path fill="#761A39" d="M185 79h1l.188 3.188c.475 3.929.475 3.929 3.312 6.312 3.113 3.113 3.247 5.194 3.5 9.5 2.025-1.933 3.421-3.632 5-6l1 6-2 1c3.095 1.032 4.526.975 7.688.563l2.449-.31L209 99l-1 2c-2.75.917-4.36 1.109-7.187 1.063L197 102c.548 2.982.548 2.982 2 6 2.996 1.305 2.996 1.305 6 2l1 2c-4.834-.414-6.895-2.378-10-6l-1-3c-6.245 1.011-6.245 1.011-10.875 5L182 111l-2 2c0-3.686.852-5.038 3-8 2.962-2.148 4.314-3 8-3v-2c-3.61-1.135-6.984-1.1-10.75-1.062l-3.547.027L174 99l1-4q3.408.425 6.813.875l3.832.492C189 97 189 97 192 99c-1.982-5.085-1.982-5.085-5.187-9.437C184.22 85.899 184.7 83.417 185 79m9 20-2 1v2h3z"/><path fill="#784C5D" d="m20 91 1 2h-3l1 5q2.22-.172 4.438-.375c.823-.07 1.647-.14 2.496-.21L28 97l1-2v3l-3.125.625c-5.314 1.52-8.533 5.057-11.25 9.75-1.202 5.05-1.198 9.056.563 13.875 1.987 3.016 3.764 4.817 6.812 6.75h4v2l-5 2c-5.215-3.867-9.116-7.652-11-14-1.02-7.483.536-12.21 4.625-18.5 1.566-2.847 2.002-5.291 2.375-8.5z"/><path fill="#C52F60" d="M26 147h1l2 14h2c1.008 1.54 1.008 1.54 2.125 3.625 4.564 7.518 10.611 10.74 18.969 12.93L54 178v2c-7.578-.337-14.562-3.707-20.04-8.953-1.391-1.623-2.688-3.328-3.96-5.047l-4 1v-2l-2-1c-2.466-3.699-2.687-6.708-2-11 1.101-2.367 2.316-3.96 4-6"/><path fill="#AB658A" d="M255 115c2.625.375 2.625.375 5 1l2 10 7 2c-1 3-1 3-3.062 4.188L264 133c-2-1.312-2-1.312-4-3v-3h-2v-2h-2v6l-6 1v-2h-5c1-3 1-3 2.848-3.95l2.214-.737 2.223-.762L254 124l-.625-3.375L253 117z"/><path fill="#BD66A0" d="M336 126c1.563 1.25 1.563 1.25 3 3-.312 2.188-.312 2.188-1 4 1.925 1.15 1.925 1.15 4 1 3.704 1.204 4.769 1.653 7 5l3 2-1.937.375L348 142l-1 2h-12l1-2c.04-2 .043-4 0-6l-6-3v-2h3l1-3h2z"/><path fill="#F21C8F" d="M255 147h4v2l1.813.313c2.688.845 3.572 1.359 5.187 3.687a59 59 0 0 1-.312 7.688l-.186 2.126c-.153 1.73-.326 3.458-.502 5.186h-4l-1-8-3 2c-2.054-3.08-2.225-3.567-2.062-7 .123-2.827-.013-4.224-.938-7z"/><path fill="#D5265D" d="m37 117 4 2-1 5h-4l-1 6-3 1c-.957 1.858-.957 1.858-1.562 4.125l-.758 2.457a196 196 0 0 0-1.617 6.23c-1.134 3.402-2.34 4.918-5.063 7.188-.402-6.338.227-10.323 3.059-15.996 1.079-2.072 1.079-2.072 1.441-4.816.677-2.964 2.32-4.144 4.5-6.188l1-3h3z"/><path fill="#C62B5C" d="m108.688 165.813 3.011.082L114 166c1 3 1 3-.187 6-2.715 4.493-2.715 4.493-5.813 6-2.72.235-5.26.137-8 0v-5h-2c2.519-5.619 4.374-7.41 10.688-7.187"/><path fill="#B56481" d="M334 171v2l-6 1v2l-2.02-.254c-6.826-.754-13.172-.602-19.98.254l-1 3c-4.75-.875-4.75-.875-7-2v2l-16 1-2-6h5v4c3.429-.42 6.668-.899 9.977-1.906 5.346-1.564 10.843-2.341 16.336-3.219l3.263-.55c6.537-1.054 12.805-1.576 19.424-1.325"/><path fill="#B84F75" d="M332 30h3c1.75 2.375 1.75 2.375 3 5-1 2-1 2-2 3h5c2.82 6.866 3.437 12.933 3.313 20.313l.01 2.955c-.06 7.823-.06 7.823-2.323 11.732-3.7-22.628-3.7-22.628 0-29h-3l1-4h-2v8h-1l-.586-2.414C334.482 37.713 334.482 37.713 332 30"/><path fill="#3273A2" d="M122 121c4.228-.415 6.332-.465 9.875 2 4.282 6.045 3.189 13.834 2.75 20.938l-.133 2.61c-.358 6.318-.358 6.318-1.492 7.452-7.294.235-7.294.235-11-1v-21h3l1 20h7a976 976 0 0 0-.25-12.25l-.043-3.512-.098-3.379-.063-3.11c-.684-3.443-1.763-4.659-4.546-6.749-3.668-.334-3.668-.334-7 0z"/><path fill="#71B2CE" d="M288 129v15h-4v-2h-6v-12c5-1 5-1 10-1"/><path fill="#743E4C" d="M32 29h3c1.389 2.778.903 4.797.625 7.875l-.273 3.18c-.288 2.41-.689 4.617-1.352 6.945h2l.402 2.484.535 3.266.528 3.234A69 69 0 0 0 40 66c-3.75 3-3.75 3-6 3v-2l2-1-1-13h-3v2h-2a424 424 0 0 1 .375-4.75c.07-.882.14-1.763.21-2.672.419-2.603 1.233-4.251 2.415-6.578.448-2.356.448-2.356.625-4.75l.227-2.422L34 32h-2l-.25 1.75C30.795 36.616 29.215 38 27 40c0-3.339.594-4.405 2.313-7.187l1.3-2.168z"/><path fill="#90223F" d="m22 161 1 2 2 1 1 3 5-2 1.938 3.188C36.073 172.647 40.157 174.71 45 177v3c-4.765.447-8.919-.572-13-3-5.322-4.753-9.327-8.684-10-16"/><path fill="#C8285D" d="M387 109c4.722 5.338 4.193 11.99 4.188 18.75l.001 2.402c-.052 5.792-.614 11.25-2.189 16.848l-2-1c-1.215-7.3-1.086-14.557-1-21.937q.037-3.358.063-6.715l.035-2.969c.064-2.396.064-2.396-1.098-4.379z"/><path fill="#7B2A3E" d="M275 183h3l3 2-2.93.918c-7.041 2.251-13.695 4.615-20.215 8.164C256 195 256 195 254 195l-1-3 5-3-1-2a353 353 0 0 1 5.625-2.562l3.164-1.442c3.596-1.115 5.59-.843 9.211.004"/><path fill="#E03574" d="m259 45 2 1-.934 2.574c-1.068 3.434-1.644 6.68-2.128 10.239-.832 6.081-.832 6.081-1.938 7.187q-3.5.061-7 0v-6h2l-.187-2.812C251 54 251 54 252.313 52.438L254 51l1.563-2.625C257 46 257 46 259 45"/><path fill="#96265B" d="M256 125h2v2h2l1 3c2.504 1.219 2.504 1.219 5 2l-1 8-2-4h-3l-2 3c-2-1.25-2-1.25-4-3v-4l-2 1c.293 5.36.293 5.36 3.563 9.438L258 144h-6c-2.38-4.759-3.101-7.548-3-13l-3-1 2.25.563c2.7.429 4.196.288 6.75-.563zm0 3 1 3h2l-1-3z"/><path fill="#E03271" d="M214 101c2.063 1.75 2.063 1.75 3 4v4c-3.894 1.897-6.479 2.181-10.562 1-4.588-1.712-6.692-4.013-9.438-8 11.988-1.744 11.988-1.744 17-1"/><path fill="#1A5C7F" d="M164 123h1v29h7l1-12h3l1 10 7 2v-15h1q.04 3.969.063 7.938l.025 2.287A183 183 0 0 1 185 153c-1 1-1 1-4.437 1.188C177 154 177 154 175 152l-2 2c-2.715.328-5.252.13-8 0-2.805-2.805-1.887-10.284-2-14 .137-5.677.56-11.34 1-17m10 20 1 3Z"/><path fill="#4B9ACF" d="M193.5 117.063c3.077 1.154 4.062 1.982 5.5 4.937-.312 3.25-.312 3.25-1 6h-2l1 3h-8v-3l-1-1c-.461-6.224-.461-6.224 1.188-9 1.812-1 1.812-1 4.312-.937"/><path fill="#0C97F1" d="M130 123c2.29 2.274 2.955 3.566 3.293 6.797l-.106 2.953-.082 2.984L133 138h-1l-2-8-3.875-.312c-5.262-.57-10.116-2.025-15.125-3.688v-2c5.75-.125 5.75-.125 8 1v-2c3.842-1.383 7.074-.928 11 0"/><path fill="#7F1A44" d="M230 165h1v6h2l1 5 2.438.375L239 177l1 2 3 1v2c14.563.542 14.563.542 27-6 2.813-.25 2.813-.25 5 0-4.88 5.942-11.567 8.07-19 8.875-8.025.419-14.698-.575-21-5.875-3.359-3.572-4.918-5.962-5.312-10.937z"/><path fill="#973050" d="M97 173h3v5l3-1 3 2-7 2c2.988 5.447 5.537 8.951 11 12-3.57 1.19-4.246.758-7.562-.75l-2.38-1.047C98 190 98 190 96 187c-.125-3.187-.125-3.187 0-6l-7-1c2.386-1.892 4.072-3.024 7-4z"/><path fill="#2EAADA" d="m232 139 6 1v2h2v4h-2v7h-8c-.054-1.77-.093-3.541-.125-5.312l-.07-2.989C230 142 230 142 232 139"/><path fill="#A25168" d="M257.262 188.348 259 189l-2.5 1.875L254 193v2l-1.937.375L250 196l-1 2-3 1q-1.53 1.47-3 3l-2 1v2l-2.262.68c-3.362 1.62-4.523 3.344-6.55 6.445l-1.833 2.758L229 217c-.742-1.672-.742-1.672-1-4 4.397-7.115 19.608-26.136 29.262-24.652"/><path fill="#C47D9C" d="M350 92c13.042-.834 22.085.46 32.75 8.75L385 103v2c-3.375.125-3.375.125-7 0-4.25-4.25-4.25-4.25-5-8l-5.957.195C365 97 365 97 362 95c-2.968-.46-2.968-.46-6.187-.625l-3.293-.227L350 94z"/><path fill="#155875" d="m214 132 2 3 2-1-.07 2.414c-.168 7.981-.168 7.981 2.07 15.586-3.875-1.75-3.875-1.75-5-4-.04-2.333-.043-4.667 0-7l-3 1 .188 3.75c-.02 2.715-.172 4.213-1.25 6.75-2.925 2.264-5.36 1.831-8.938 1.5-2.035-2.035-1.185-6.087-1.187-8.875l-.038-2.223c-.01-3.838.047-5.635 2.225-8.902l-1 18h7l-.07-1.828-.055-2.422-.07-2.39c.212-2.567.908-4.152 2.195-6.36h3z"/><path fill="#0DA5F1" d="m172 130 1 2q3.489.579 7 1l3 1q.039 3.125.063 6.25l.035 3.516c-.08 2.644-.312 4.732-1.098 7.234h-3l.125-3.187c-.119-3.626-.273-5.727-2.125-8.813-2.524-1.36-2.524-1.36-5-2z"/><path fill="#9C466A" d="M346 93q3.876.172 7.75.375c.73.03 1.46.062 2.21.094 3.861.21 6.677.642 10.04 2.531h7l2 2c-.375 2.125-.375 2.125-1 4l-3.187-1.437c-9.07-3.846-17.457-2.71-26.813-.563z"/><path fill="#C44070" d="m213 83 3 1c1.8 4.648.15 7.797-1.7 12.11C213 98 213 98 210.856 98.765L209 99l1-3-4 1a196 196 0 0 1-.187-4.375l-.106-2.46L206 88c3.228-2.152 4.284-2.2 8-2l-1-1z"/><path fill="#50A6C6" d="M229.133 129c5.444 1.899 8.647 6.706 12.203 11.059 2.625 2.898 3.104 3.327 6.664 3.941v2l2 1-6 3-1-3c-2-1.209-2-1.209-4-2l1-3h-2v-2l-5-1 .063-2.437c.233-2.497.233-2.497-1.063-3.563-1.602-.1-3.208-.13-4.812-.125l-2.645-.008c-2.33.122-4.312.478-6.543 1.133 2.925-4.255 6.19-5.117 11.133-5"/><path fill="#983555" d="m365 166 4 1c-5.761 2.933-11.426 4.764-17.687 6.25l-2.196.53c-4.117.939-7.864 1.408-12.117 1.22l-1-4 7 1v-2c16.224-3.925 16.224-3.925 22-2z"/><path fill="#3AACDC" d="M302 133h8c2.072 4.388 2.072 4.388 1.75 7.125C311 142 311 142 309 145c-3.125.188-3.125.188-6 0-2.83-3.996-1.762-7.427-1-12"/><path fill="#75354B" d="M93 133c-2.665 2.665-5.686 3.422-9.187 4.563-.648.22-1.296.442-1.963.67-7.414 2.45-14.533 2.91-22.287 2.83l-2.506-.014q-3.03-.02-6.057-.049v-1l18-1v-2h-8v-1q3.468-.29 6.938-.562l3.902-.317L75 135l1 1 1.688-.656c5.364-1.958 9.61-2.655 15.312-2.344"/><path fill="#812542" d="m163 187 7 1v-1h22v2l6-2-1 2 3 2c-1.272-.095-2.545-.19-3.855-.29-11.431-.754-22.327-.506-33.704.817-3.5.407-6.912.57-10.441.473l1-3h10z"/><path fill="#953558" d="m252 46 .438 1.813c.45 1.749.99 3.474 1.562 5.187l-2 2c-.648 2.57-.648 2.57-1 5h-2l.168 1.677 1.297 12.971.27 2.664q.27 2.735.517 5.474l.248 2.683.215 2.412c.348 2.587 1.12 4.788 2.285 7.119l-2 1c-6.35-13.803-6.117-32.642-1.754-47.121C251 47 251 47 252 46"/><path fill="#762A44" d="m36 124 4 1-5 8 5 2c-1.187 1.5-1.187 1.5-3 3-2.613.094-2.613.094-5 0-2.485 8.044-3.362 14.665-2 23-3.18-3.18-3.08-6.796-3.25-11.125.04-4.682 1.146-8.835 2.496-13.297.735-2.512 1.278-5.006 1.754-7.578l4 1z"/><path fill="#9B4362" d="m107 112 2 3-1 3c2.51-1.255 2.871-2.5 4-5 1 3 1 3-.312 5.688L110 121h-2l-.937 1.938C106 125 106 125 105 126c.467 4.044 1.156 8.02 2 12h-3c-2.308-2.308-1.46-7.872-1.621-10.996-.081-3.115-.081-3.115-2.379-5.004l1.277-1.426 1.66-1.886 1.653-1.864c1.61-1.876 1.61-1.876 2.41-4.824"/><path fill="#CD406F" d="m181.5 97.813 2.844-.043c2.716.235 4.335.845 6.656 2.23v2l-7 3v-2c-3.417-.167-3.417-.167-7 0l-2 2v-2h-4l-1 3h-2c.561-3.257 1.372-4.956 4-7 3.18-1.03 6.17-1.165 9.5-1.187"/><path fill="#49ABCE" d="M329 132c6.875 2.875 6.875 2.875 8 4 .188 2.938.188 2.938 0 6-2 2-2 2-5.125 2.125L329 144c-1.625-2.75-1.625-2.75-3-6 .75-2.25.75-2.25 2-4z"/><path fill="#A33556" d="M27 128h1c.457 3.539-.239 5.59-1.875 8.625C22.531 144.081 22.628 152.871 22 161c-4.61-8.478-2.065-19.966 0-29l1.938-.312L26 131z"/><path fill="#276F96" d="M154 130c4.31 2.155 4.31 2.155 6 5 1.862 6.19 2.294 11.661 1 18h-1l-.078-2.125c-.386-6.453-1.079-13.032-5.922-17.875a68 68 0 0 0-4.812-.187l-2.645-.043c-2.688.243-4.28.781-6.543 2.23-1.217 2.434-1.32 4.418-1.562 7.125l-.254 2.758L138 147h-1c-.785-9.967-.785-9.967 2.375-14.125 4.801-3.43 8.819-3.605 14.625-2.875"/><path fill="#AC335A" d="M62 96c3 1 3 1 4.375 2.5 2.094 1.933 3.847 2.125 6.625 2.5-2.411 2.411-4.812 3.502-7.875 5l-3.18 1.563L59 109q-2.001.996-4 2v-3l2.438-1.375c2.81-1.392 2.81-1.392 3.374-4.312L61 100l-6 1c2.297-1.743 4.599-3.4 7-5"/><path fill="#B45E80" d="M325 19c2.617 2.376 4.381 4.843 6 8l-1 2-1.434-1.39c-7.552-7.008-14.044-9.963-24.378-10.337L302 17l-1-2c8.608-3.297 16.368-.852 24 4"/><path fill="#A4788D" d="M342 114h4v2h2l2 10-4 2-.586-6.152L345 120l-2-1-.312 2.875C342 125 342 125 339 127l-4-2v-4l3 1 1.438-3.437C341 115 341 115 342 114"/><path fill="#B2426C" d="M392 138c1.219 3.657.73 4.27-.937 7.625C386.403 154.43 379.845 161.32 371 166h-2v-3l6-2v-3l2.313-1.375c3.068-1.855 3.922-3.577 5.687-6.625l3-1 1-2h2l.375-1.687c.685-2.534 1.616-4.892 2.625-7.313"/><path fill="#903B5B" d="M207 112h7v1h-6l1 2 3-1 2 1v5c-3.75 1.125-3.75 1.125-6 0v5c-2.76 1.804-3.89 2.013-7.25 1.625L198 126l-.375-2.812c-.44-3.327-.44-3.327-2.625-6.188 1.875.188 1.875.188 4 1 1.25 2.563 1.25 2.563 2 5h6z"/><path fill="#D92D68" d="M189 76h4c.727 1.575 1.431 3.16 2.125 4.75l1.195 2.672C197 86 197 86 196.117 88.328L195 90l-5-2v-2l-3-1z"/><path fill="#C73568" d="M376 151c0 3 0 3-1 5h2v2h-2v3c-3 2-3 2-6 2v3h-4v2h-5l-1-2h2v-2h2l1-3c2.066-.95 2.066-.95 4.563-1.687l2.503-.762L373 158v-4c1.5-1.75 1.5-1.75 3-3"/><path fill="#BC4B71" d="M385 105c6.339 5.653 8.691 11.978 9.203 20.305.088 6.662.14 11.844-3.203 17.695h-1c.01-.685.02-1.37.032-2.076.042-3.141.067-6.283.093-9.424.017-1.078.034-2.155.05-3.266.048-7.791.09-15.012-5.175-21.234z"/><path fill="#0AB3F6" d="m231 135-1 3-8 1-1 5h2v2l2 1-1 3c-1.875-.187-1.875-.187-4-1-2.068-3.618-2.525-6.885-2-11 3.198-5.423 7.587-4.064 13-3"/><path fill="#7C2F44" d="m99 190 2.688.938c2.788.894 5.44 1.533 8.312 2.062l1.664.492c3.334.725 6.69.875 10.086 1.07l2.113.131q2.569.158 5.137.307v3c-20.48.846-20.48.846-28.562-6.25z"/><path fill="#AC3F6A" d="M192 104c1 3 1 3 .438 5.375-.53 3.171.178 4.776 1.562 7.625l-2.437 1.125c-2.875 1.686-2.875 1.686-3.375 5.063L188 126l-6 1c-2.985-4.105-3.295-6.977-3-12h1l1 9h3l.375-2.875C185 118 185 118 187 116c2.62-3.82 3.86-7.524 5-12"/><path fill="#773454" d="M116 158c2.034 1.415 2.904 2.55 3.422 4.98.24 2.002.413 4.011.578 6.02h3l1-4h2l1 8h-3v-3l-3 5-3-1-1-3-2-1-1 3-1-3 1-2-1-3 3 1v3h2l-1-3.25c-1-3.75-1-3.75-1-7.75"/><path fill="#9D3E61" d="m323 175 2.875.563L328 176v1q-5.843.861-11.688 1.709-2.96.431-5.92.87l-3.779.546-3.475.508c-2.754.322-5.37.44-8.138.367l3-2v-2l7 1 1-2c5.678-1.654 11.221-2.513 17-1"/><path fill="#84213E" d="M104 99v2l-2.973-.508C91.203 98.96 82.79 99.172 73 101v-2h3v-2c9.296-2.204 19.358-2.233 28 2"/><path fill="#3787A7" d="M271 148c1.75-.081 3.5-.14 5.25-.187l2.953-.106c3.172.332 4.467 1.18 6.797 3.293-.506 2.169-1 4-2 6l-2.312-.937A111 111 0 0 0 276 154v-2h-3v-3z"/><path fill="#3D8CB9" d="M165 122h9l1 7 7 2c-3.937 1.312-6.125.243-10-1v-5h-6l1 27h-2z"/><path fill="#24698B" d="M197 131h1c.029 3.646.047 7.292.063 10.938l.025 3.154.01 2.998.016 2.777C198 153 198 153 197 154c-3.437.188-3.437.188-7 0-2-2-2-2-2.227-4.063.01-.827.02-1.655.032-2.507l.02-2.715.05-2.84.027-2.863q.036-3.507.098-7.012h1c1.056 4.283 1.117 8.43 1.063 12.813l-.014 2.1q-.02 2.543-.049 5.087h6z"/><path fill="#91547B" d="m111 132 3 1-.176 2.598c-.462 7.81-.462 7.81 2.676 14.714L119 153c-4.697-1.382-6.543-3.536-9.312-7.5l-2.114-2.969C106 140 106 140 106 138l5 2zm1 9 1 2Z"/><path fill="#C780A8" d="m336 123 1.813 2.375c2.098 2.77 2.098 2.77 5.187 4.625 1.688 1.5 1.688 1.5 3 3v2l3.438.438C353 136 353 136 354 137c1.515.232 3.038.412 4.563.563l2.503.253L363 138c-2 2-2 2-5.625 2.375-4.143-.083-7.046-1.383-10.613-3.402-1.905-1.122-1.905-1.122-4.762-1.973l-3 1-.375-3.312c-.38-3.762-.38-3.762-2.625-6.688z"/><path fill="#6D3245" d="m200 191 3.813-.125 2.144-.07C208 191 208 191 211 193h3c1.754 1.207 1.754 1.207 3.563 2.813l1.816 1.582C221 199 221 199 223 202v3l-4-2v-2l-1.562-.75c-1.934-.992-3.821-2.075-5.688-3.187-3.77-2.184-7.643-3.622-11.75-5.063z"/><path fill="#49ADCF" d="M313 129h4c1.89 3.891 1.934 5.848 1 10 .377 2.725.377 2.725 1 5-2.867-.573-3.861-.861-6-3-.195-2.82-.195-2.82-.125-6.125l.055-3.32z"/><path fill="#CA5884" d="M338 40h2l-1 4h3l-.492 1.695c-1.722 7.812-.334 16.465.37 24.336C342 73 342 73 341 76h-3z"/><path fill="#D12A5E" d="M61 100c.25 2.313.25 2.313 0 5-2.044 1.976-3.118 3-6 3v3c-4.75.125-4.75.125-7-1v-3l4-1v-2c2.54-3.176 5.002-4 9-4"/><path fill="#22749B" d="M229 141h1v12h8v-7l5 1-1 2-3-1v4l2 1-3 3v-2h-17l-1-2h8v-7l-3-1 3-1z"/><path fill="#A94062" d="m262 45 2 1-.875 2.578C259.774 59.517 259.584 69.618 260 81c-2.36-2.36-2.298-2.996-2.484-6.219l-.15-2.563-.116-2.718-.128-2.746C256.875 59.94 256.887 53.226 260 47h2z"/><path fill="#CC2150" d="m30 36 1 2 2 1h-2l-.367 2.266-.508 2.984-.492 2.953C29.05 49.773 28.292 51.721 27 54h-2v-4h-2c.375-1.937.375-1.937 1-4l2-1-1-3c1.404-2.264 3.197-4.02 5-6"/><path fill="#D051B0" d="m246 148 2 1c-.986 3.315-1.654 4.75-4.5 6.813C241 157 241 157 239 157v2l-4 1-.375 2.125c-.663 3.052-1.597 5.928-2.625 8.875h-1c-.717-6.815-.717-6.815 1.266-10.09 1.502-1.783 2.938-3.421 4.734-4.91h2l.688-2.312c1.592-3.261 3.04-4.215 6.312-5.688"/><path fill="#942E4B" d="M98 140c.892 2.676.988 4.7.938 7.563-.09 5.266 1.004 10.3 2.062 15.437l6 1-1 2c-6.875-.875-6.875-.875-8-2l.063-3.25c-.062-3.662-.56-5.493-2.063-8.75-1.645-4.157-2.275-6.666-1-11z"/><path fill="#0A95F7" d="M109 125c1.816.422 3.628.863 5.438 1.313l3.058.738L120 128c1.208 3.623.543 4.641-1 8l-3-1v-5h-7v3h-2v-6h2z"/><path fill="#CB2A5C" d="m37 117 4 2-1 5h-4l-1 6-3 1-1 3h-1c-.687-2.75-.687-2.75-1-6 1.375-2.187 1.375-2.187 3-4l1-3h3z"/><path fill="#C83767" d="m76 93-1 6h-2v2h-6l-1-2-3-2h2v-2c3.83-1.802 6.781-2.196 11-2"/><path fill="#A54260" d="m23 71 4 1 2 9-2 1-2-5c-1.945 2.918-2.453 4.625-3 8h2l-1 4v-2h-2l-2 3a100 100 0 0 1 0-5l1-1-.125-2.625C20.029 77.207 21.206 74.738 23 71"/><path fill="#8E3F5B" d="M119 153c1.875.25 1.875.25 4 1 1.063 1.813 1.063 1.813 2 4l1.625 1.75c2.09 3.42 1.573 6.286 1.375 10.25h-2v-5l-1 2h-2v2h-3v-5h3c-.783-3.916-2.392-7.364-4-11"/><path fill="#F31D91" d="m247 150 4 1h-2l-1 31-3 1-2-1v-2l-4-1c3.133-1.044 3.99-.934 7 0l-.035-1.773c-.096-9.1.476-18.149 1.035-27.227"/><path fill="#B23A74" d="M252 132h2l.125 1.75c.741 2.575.741 2.575 3.813 4.063 3.8 2.714 4.2 4.7 5.062 9.187l-5-2v-2l-2.375-.75c-2.625-1.25-2.625-1.25-4-3.062-.776-2.716-.373-4.496.375-7.188"/><path fill="#0CAAF4" d="M191 133h4c.1 6.11.071 11.974-1 18h-3z"/><path fill="#B42D53" d="M80.691 91.75c4.16.45 8.34.21 12.516.09C96 92 96 92 98 94l-3.395.113q-2.208.099-4.418.2l-2.236.068c-4.282.175-4.282.175-7.963 2.162L79 98l-3-1-1 2-1-3 2-3-3-1c3.096-1.032 4.571-.787 7.691-.25"/><path fill="#CA295A" d="m110 170 2 2-4 1v2l-2 1v2h-6c.25-3.375.25-3.375 1-7 2.974-2.549 5.397-2.138 9-1"/><path fill="#014D83" d="m123 131 2 1v21h-3c-.029-3.48-.047-6.958-.062-10.437l-.026-3.01-.01-2.862-.016-2.65C122 132 122 132 123 131"/><path fill="#F1187F" d="M255 147h4v2h2v5h-2l.125 2.875C259 160 259 160 257 162c-2.054-3.08-2.225-3.567-2.062-7 .123-2.827-.013-4.224-.938-7z"/><path fill="#0B4670" d="m146 141 3 2h2l1-2v12h8v1c-2.563.081-5.124.14-7.687.188l-2.186.076c-4.58.062-7.516-.375-11.127-3.264-.812-2.187-.812-2.187-1-4l3 1v2h4v2h6v-7l-5-1z"/><path fill="#D04D90" d="m254.875 143.813 2.617-.043c2.632.241 4.248.9 6.508 2.23v2l2.375.813C269 150 269 150 271 153c-8.571-2-8.571-2-12-4v-2l-1.898.07-2.477.055-2.46.07C250 147 250 147 248 145c2.45-1.225 4.142-1.167 6.875-1.187"/><path fill="#0BA5F7" d="m168 132 3 1c1.528 5.73 1.881 12.356 0 18h-3z"/><path fill="#C2547F" d="m295.012 12.902 2.295.01 2.38.025 2.417.014q2.947.02 5.896.049c-2 2-2 2-4.625 2.125L301 15l-1 2c-2.723.414-2.723.414-6.062.625l-3.348.227L288 18v-4c2.707-.902 4.238-1.119 7.012-1.098"/><path fill="#1E96E0" d="M125 132h2l1 15h5v5h-7c-1.15-4.09-1.11-8.032-1.062-12.25l.013-2.258q.02-2.745.049-5.492"/><path fill="#0D9FF3" d="M142 135c1.984 2.917 1.988 4.124 1.625 7.75L143 146l6 1 1 3c-3.434.859-5.617.976-9 0a380 380 0 0 1-.562-4.25l-.317-2.39c-.165-3.209.452-5.506 1.879-8.36"/><path fill="#B1829C" d="M348 111c2.652 1.68 3.842 2.536 4.875 5.563.95 2.777.95 2.777 4.25 3.75L360 121l-1 3h-8l-.367-1.715-.508-2.222-.492-2.215c-.463-2.055-.463-2.055-2.633-2.848z"/><path fill="#AF587A" d="m270 23 1 2h-2v2a622 622 0 0 1-4.598 3.691C262.66 32.317 262.175 33.634 262 36h-2v3c-1.375 1.563-1.375 1.563-3 3l-2 2c-1-3-1-3-.031-4.98C264.905 24.698 264.905 24.698 270 23"/><path fill="#EC2AB2" d="m239 157 1 3-2.062 1.688c-2.221 2.1-2.221 2.1-1.75 4.562L237 169q.312 2.153.563 4.313L238 177c-1.875-.187-1.875-.187-4-1-1.86-3.35-2.463-6.206-2-10 1.25-3.25 1.25-3.25 3-6 2.188-.875 2.188-.875 4-1z"/><path fill="#DD2962" d="M178 87c8.184 1.819 8.184 1.819 10.813 5.625L190 95c-4.52 1.456-7.516.27-12-1z"/><path fill="#A94564" d="M179 83c3.438 1.5 3.438 1.5 6 3v3q-2.407-.466-4.812-.937l-2.708-.528C175 87 175 87 172 86l1 8c-2.354-2.55-2.983-3.71-3.187-7.25L170 84c3.072-1.536 5.602-1.227 9-1"/><path fill="#852A43" d="M275 183h3l3 2q-2.904 1.007-5.812 2l-3.27 1.125C269 189 269 189 266 189l1-3h-6c5.108-3.406 7.938-4.318 14-3"/><path fill="#B15873" d="m345 169-2 1v2l-7-1v2l2 1-1 2c-1.458.054-2.916.093-4.375.125l-2.46.07C328 176 328 176 326 174c2.709-1.354 5.01-1.065 8-1v-2l-4-1c5.05-1.036 9.874-1.103 15-1"/><path fill="#45A0CD" d="M285 129h3v15h-4q-.04-3.469-.062-6.937l-.036-3.903C284 130 284 130 285 129"/><path fill="#7B6688" d="M336 126c1.563 1.25 1.563 1.25 3 3-.312 2.188-.312 2.188-1 4l2 1-2 10-3-1 1-1c.04-2 .043-4 0-6l-6-3v-2h3l1-3h2z"/><path fill="#DC3A74" d="m252 86 2 1v2l2 1 1-1 2 1c.594 2.649.742 5.292 1 8l-4 1-1-3-2-1v-4l-2-1z"/><path fill="#D72C67" d="m195 110 9 3 1 9-4-1v-4l-6-1z"/><path fill="#B2647E" d="m89.25 90.688 2.527-.05c8.583-.006 13.894 2.65 20.223 8.362l-1 3-1.875-2.25c-7.415-7.15-16.148-7.123-25.875-6.954-2.084.054-4.167.127-6.25.204 4.124-2.75 7.406-2.33 12.25-2.312"/><path fill="#AD5074" d="M189 73c2.75.063 2.75.063 6 1 2.17 2.618 4 5.515 4 9h-2l-1.312-2.375c-1.956-3.042-3.29-3.615-6.688-4.625l-1 9 2 1-1 2-3-2c-.815-4.138-.632-7.92 1.5-11.562z"/><path fill="#A85A72" d="m165 186-2 1v2l-3.254.402-6.443.8A638 638 0 0 0 140 192v-2c8.408-2.511 16.12-4.752 25-4"/><path fill="#0CAEF4" d="M207 133h5c-.572 4.006-1.937 6.561-4 10-.707 2.693-.707 2.693-1 5-2-2-2-2-2.25-5.25.241-3.618.938-6.389 2.25-9.75"/><path fill="#673245" d="m20 91 1 2h-3l1 5q2.22-.172 4.438-.375c.823-.07 1.647-.14 2.496-.21L28 97l1-2v3l-3.062.625C21.35 99.898 18.363 102.75 15 106l-3-2c.474-.4.949-.8 1.438-1.21 2.33-2.67 2.406-5.409 2.937-8.83L17 92z"/><path fill="#A05468" d="M30 162c1.962 1.859 3.507 3.685 5.125 5.875C39.883 173.637 46.897 176.338 54 178v2c-7.452-.331-14.175-3.661-19.781-8.555-2.607-2.925-3.875-5.549-4.219-9.445"/><path fill="#BA3D67" d="m196 101 1 2 2 .938c2 1.062 2 1.062 3 4.062l3.875.438c2.382.268 3.97.484 6.125 1.562l2-.562 2-.438 2 2c-2.434 1.217-4.418 1.32-7.125 1.563l-2.758.253L206 113l-1-2-2.875-1.375c-3.107-1.616-4.433-2.616-6.125-5.625z"/><path fill="#BD597A" d="M195 103c2.04 2.04 3 3.083 3 6l2.438.875C203 111 203 111 204 113c-3.937-1.312-6.227-2.92-9-6l-2 4c-.934-3.01-1.044-3.867 0-7l-5 1-1 4-4 1v2l-2-1q1.432-1.724 2.875-3.437l1.617-1.934c2.857-3.086 5.44-3.044 9.508-2.629"/><path fill="#449ECB" d="M214 130v9h-3l-1 2 2-8c-2.02.602-4.021 1.273-6 2l-1 2h-2c.313-2.375.313-2.375 1-5 3.644-2.43 5.712-2.162 10-2"/><path fill="#2692DC" d="M130 123c2.29 2.274 2.955 3.566 3.293 6.797l-.106 2.953-.082 2.984L133 138h-1l-1.465-5.957c-1.068-4.273-1.068-4.273-4.535-7.043-3.627-.372-5.874.147-9 2v-2h2v-2c3.842-1.383 7.074-.928 11 0"/><path fill="#47649F" d="m266 142 1 2h7l-4 1v2h8v1l-5 1-1 4-8-5z"/><path fill="#C21C48" d="M33 55c2 2 2 2 2.313 5.938-.057 2.824-.082 3.754-1.813 6.062L32 68l-2-1v-5h-2l2-4h3z"/><path fill="#D53A72" d="M251 54h1l1 8c1.911-1.911 2.823-4.596 4-7 1.6 4.002.293 7.046-1 11h-7v-6h2z"/><path fill="#A64267" d="M275 23q2.514.428 5 1l-2 1.875c-5.273 5.288-10.52 11.002-13 18.125h-1v-6h2v-3h2v-2h2l-1-4h4v-2h2l-1-3z"/><path fill="#276580" d="M277 129h5l-1.5 1c-2.369 3.159-1.624 6.107-1.5 10l-1 2h6v2l4 1c-1.603.081-3.208.14-4.812.188l-2.708.105C278 145 278 145 276.187 143.719c-1.905-2.759-1.37-5.476-1.187-8.719h2z"/><path fill="#904173" d="M256 125h2v2h2l1 3c2.504 1.219 2.504 1.219 5 2l-1 8c-2-3.75-2-3.75-2-6l-5 1-1-2h-2c-.125-5.75-.125-5.75 1-8m0 3 1 3h2l-1-3z"/><path fill="#842F49" d="M93 133c-2.705 2.705-5.825 3.508-9.375 4.688l-2.04.72c-6.124 2.056-6.124 2.056-9.585.592l3-1 1-2c5.619-2.68 10.852-3.335 17-3"/><path fill="#A65870" d="M93 129v4l-1.941.367c-4.023.78-7.937 1.597-11.871 2.758-2.92.801-5.187 1.057-8.188.875l4-1v-2l2.047-.586 2.703-.789 2.672-.773c2.55-.763 2.55-.763 4.656-1.954C89 129 89 129 93 129"/><path fill="#B6355D" d="M109 105h4c.454 8.93.454 8.93-3 13-2.187.813-2.187.813-4 1l.938-1.937c1.381-3.983 1.716-7.88 2.062-12.063"/><path fill="#BC5C82" d="m346 93 15 1c-3 2-3 2-7 2v2l-10 2z"/><path fill="#C75589" d="M280 174h5v4c4.342-.185 4.342-.185 8-2a75 75 0 0 1 4.563-.062l2.503.027L302 176l-4 1v2l-16 1z"/><path fill="#20AEEA" d="M225 133c2-.043 4-.04 6 0 1 1 1 1 1.188 3.938C232 140 232 140 230 142c-2.625-.375-2.625-.375-5-1l-1 3-2-1v-4l1.715-.367 2.222-.508 2.215-.492c2.055-.463 2.055-.463 2.848-2.633h-5z"/><path fill="#E02E6D" d="m209 86 3 1v6h-2v3l-4 1a196 196 0 0 1-.187-4.375l-.106-2.46L206 88z"/><path fill="#A63058" d="M374 102h4v3h7l1 3-3 1v7c-2-3-2-3-3.937-6.437-1.516-2.68-3.135-5.153-5.063-7.563"/><path fill="#B23C6B" d="M328.688 107.375 331 108a271 271 0 0 1-2.812 3.5l-1.583 1.969C325 115 325 115 322 115c-1.34.306-2.675.635-4 1 2.022-4.51 5.214-9.389 10.688-8.625"/><path fill="#962C4C" d="M113 101c1.262 2.525 1.099 4.312 1.063 7.125l-.028 2.758L114 113h-1l-1-7-3-1v6h-1l-.875-3.312c-.944-3.728-.944-3.728-3.125-6.688 3.31-1.103 5.655-.994 9 0"/><path fill="#B4355D" d="m28 81 3 1c-.551 5.239-1.43 9.974-3 15l-6-1 1.438-2.375C24.339 92.111 25.212 90.576 26 89h2c.8-3.287 1.097-4.71 0-8"/><path fill="#CD7C9D" d="m298.875 11.875 3.242.027q3.942.036 7.883.098v1l-3.77.078c-8.643.266-16.287.556-24.296 4.18L280 18l-2-1c5.191-6.345 13.46-5.244 20.875-5.125"/><path fill="#6F1E37" d="m163 187 2 1c2.371.23 4.747.411 7.125.563l3.883.253L179 189v1q-5.062.506-10.125 1c-.951.095-1.903.19-2.883.29-4.683.454-9.28.837-13.992.71l1-3h10z"/><path fill="#A23B62" d="m299 179-4 1v2c-4.41 1.102-8.484 1.077-13 1v-3c11.522-2.48 11.522-2.48 17-1"/><path fill="#B82851" d="M33 170a563 563 0 0 1 6 3.313l3.375 1.863L45 177v3c-3.84.22-6.727.123-10-2-1.058-2.672-1.493-5.144-2-8"/><path fill="#D7306A" d="m214 103 3 2v4c-5.058 2.464-8.073 1.744-13.145.02C202 108 202 108 201 105l2.125.5c3.014.524 5.822.571 8.875.5v2h3z"/><path fill="#E11A6D" d="m252 146 3 1c-.75 6.75-.75 6.75-3 9h-3l.125-2.375c.162-2.786.162-2.786-2.125-4.625 2.313-1.562 2.313-1.562 5-3"/><path fill="#A85C78" d="M69 137v2c-3.553 1.184-6.803 1.184-10.5 1.188l-2.05.037c-3.714.01-5.28-.112-8.45-2.225 7.026-.748 13.934-1.138 21-1"/><path fill="#9C5C7A" d="M255 115q2.514.428 5 1c.625 2.375.625 2.375 1 5l-2 2v-2h-2l-1 3c-1.562-1.75-1.562-1.75-3-4 .248-2.17.442-3.442 2-5"/><path fill="#B35076" d="m331 92 1 2h3l1 5-10 2c1.09-3.775 1.908-6.47 5-9"/><path fill="#7A3D4F" d="M34 47h2l.402 2.484.535 3.266.528 3.234A69 69 0 0 0 40 66c-3.75 3-3.75 3-6 3v-2l2-1-1-13h-2l-1-3h2z"/><path fill="#A5376F" d="M282 165c3.324 4.335 4.12 6.471 4 12h6v1h-7v-4l-12 2 1-3 8-1z"/><path fill="#407B9C" d="m149.125 129.938 2.758.027L154 130v2l-2.047.148-2.703.227c-.882.07-1.763.14-2.672.21-2.602.419-4.352 1.021-6.578 2.415-1.217 2.434-1.32 4.418-1.562 7.125l-.254 2.758L138 147h-1c-.785-9.967-.785-9.967 2.375-14.125 3.636-2.597 5.334-2.994 9.75-2.937"/><path fill="#6A3240" d="M229 218h2l-2 12-3 1c-1.607-3.215-1.057-6.436-1-10h2z"/><path fill="#3DADDA" d="m295 135 3 1-1 7c-2.875.125-2.875.125-6 0l-2-2 1-3 5-1z"/><path fill="#BC3C68" d="M184 87c3.379 1.398 5.15 2.829 7 6 .688 3.25.688 3.25 1 6l-2.875-.937C184.491 96.72 179.795 96.367 175 96v-1c4.036-.699 7.065-1.124 11 0l3-1-2-4h-2z"/><path fill="#26B1E9" d="m221 141 1 2c1.979.727 3.98 1.398 6 2v7c-2.875.188-2.875.188-6 0l-2-3h4l1-2-3-1 1-2h-2z"/><path fill="#226CBE" d="m266 137 6 1-1 2 2 1v2l2 1h-8v-2h-2z"/><path fill="#DE55A1" d="M344.5 134.688c2.797 1.468 3.434 2.405 4.5 5.312-2.812 1.125-2.812 1.125-6 2l-3-2c-.187-2.625-.187-2.625 0-5 2-1 2-1 4.5-.312"/><path fill="#7E485D" d="M204 76h5c1.125 3.75 1.125 3.75 0 6l4 1-7 1c-2.152-3.228-2.2-4.284-2-8"/><path fill="#752E42" d="M29 68h1v7h4c-1.112 3.335-2.474 4.637-5 7-1.316-3.62-2-6.096-2-10l-3-1v-2l4 2z"/><path fill="#B06987" d="M328 23c6.782 4.316 10.146 7.579 13 15l-2 1-3-1 1-3c-2.716-2.874-2.716-2.874-6-5-3-4.5-3-4.5-3-7"/><path fill="#7E2D46" d="m96 181-1 2c-2.504.414-2.504.414-5.562.625l-3.067.227L84 184l1-3-3-2c5.776-1.181 8.866-.75 14 2"/><path fill="#57A4C3" d="M229.582 129.535c3.667.705 5.296 2.495 7.418 5.465v2l-3 1-2-5a673 673 0 0 0-4.75-.062l-2.672-.036c-2.36.09-4.323.429-6.578 1.098 3.13-4.554 6.424-4.655 11.582-4.465"/><path fill="#C3668D" d="m349 94-3 1c-1.219 2.504-1.219 2.504-2 5l-8-1v-2c4.622-2.219 7.768-3.383 13-3"/><path fill="#B8254B" d="M32 32h2c.352 5.63-.056 9.936-2.266 15.137C30.724 49.7 30.34 52.277 30 55h-1c-.191-5.261.24-9.769 1.488-14.879C31.136 37.435 31.58 34.73 32 32"/><path fill="#914156" d="M257.328 188.285 259 189l-2.5 1.875L254 193v2l-1.937.375L250 196l-1 2c-2-1-2-1-4-3a346 346 0 0 1 4.75-3.562l2.672-2.004C255 188 255 188 257.328 188.285"/><path fill="#1C9EE2" d="M172 138h5c2.053 3.448 3.063 5.317 2.688 9.375L179 150h-1l-.367-1.934-.508-2.504-.492-2.496L176 141l-2-1-2 12h-5l4-1z"/><path fill="#49B5D5" d="M321 133h3v11h-4a758 758 0 0 1-.062-4.937l-.036-2.778C320 134 320 134 321 133"/><path fill="#2590DC" d="M109 130h7l-1 17-2-1v-13l-3-1-1 4v-2l-2-1h2z"/><path fill="#905F6E" d="m340 116 6 2-1 2-2-1-.312 2.875C342 125 342 125 339 127l-4-2v-4l3 1z"/><path fill="#18A6ED" d="m191 120 6 1v5h-7l-1-3z"/><path fill="#7B2C45" d="m170 111 9 1-4 1v5c-1.875.625-1.875.625-4 1l-2-2c.375-3.125.375-3.125 1-6"/><path fill="#872C41" d="M34 37h1a712 712 0 0 1-.375 6.188c-.07 1.148-.14 2.297-.21 3.48C34.024 49.8 33.318 52.153 32 55h-2c.39-6.56 1.421-11.945 4-18"/><path fill="#863B5A" d="M332 30h3c1.75 2.375 1.75 2.375 3 5-1 2-1 2-2 3h5v2h-3v8h-1l-.586-2.414C334.482 37.713 334.482 37.713 332 30"/><path fill="#7A1B36" d="M60 182q3.51.43 7 1v1l5 1v1c-7.427.103-14.635-.001-22-1v-1c.957-.09.957-.09 1.934-.184l2.504-.254c.823-.08 1.647-.162 2.496-.246 2.053-.105 2.053-.105 3.066-1.316"/><path fill="#D61D6C" d="m261 177 5 2-1 2c-5.893 1.652-11.903 2.271-18 2l2-5 1 3q2.19-.425 4.375-.875l2.46-.492c2.352-.5 2.352-.5 4.165-2.633"/><path fill="#7D1836" d="M116 158c2.672 1.975 3.047 3.188 3.875 6.5.125 3.5.125 3.5-1.312 5.438L117 171l-2-1-1 3-1-3 1-2-1-3 3 1v3h2l-1-3.25c-1-3.75-1-3.75-1-7.75"/><path fill="#AB2F74" d="M265 152h11l-2 2 4 3-1 2-9-3v-3z"/><path fill="#2D8DD3" d="m120 131 3 1-1 21c-4-1-4-1-6-4l5 1z"/><path fill="#A25E72" d="M139 192c-6.145 4.097-11.864 4.231-18.937 3.625l-2.362-.172c-1.901-.14-3.801-.295-5.701-.453v-1q4.5-.507 9-1c.84-.095 1.678-.19 2.543-.29A121 121 0 0 1 139 192"/><path fill="#91286F" d="M230 165h1v6h2l1 5 2.438.375L239 177l1 2 3 2c-2.625.438-2.625.438-6 0-2.918-2.556-5.265-5.53-7-9-.04-2.333-.043-4.667 0-7"/><path fill="#956582" d="M340 120h1v5h2v3l3 1-1 3h3l2 4-4-1v-2l-1.812-.75c-2.643-1.51-3.791-2.53-5.188-5.25.313-3.75.313-3.75 1-7"/><path fill="#73334C" d="M383 116h1a729 729 0 0 1 1.063 6.625l.597 3.727c.326 3.494.09 6.238-.66 9.648h-2l-1 2z"/><path fill="#B47296" d="m260 126 8 1v4l-4 2c-2-1.25-2-1.25-4-3z"/><path fill="#A7335A" d="M171 103c1 3 1 3 1 7h8l-1 2c-8.571.286-8.571.286-12-2v-5h3z"/><path fill="#70324B" d="m216 94 5 1v5h-3l-1 2-3-3z"/><path fill="#F11B8E" d="M273 158h1v8l6 1-1 3h2v2l-7-1 1-2-3-2c-.471-2.743-.178-5.196 0-8z"/><path fill="#237C9E" d="M217 134c.952 2.857 1.054 4.38.938 7.313-.058 3.937.552 7.008 2.062 10.687-1.91-.703-1.91-.703-4-2-2.03-4.722-2.442-8.834-.625-13.625z"/><path fill="#BD2D59" d="M100 94c4.43 1.208 6.981 2.517 10 6l-6 1v-2l-4-1z"/><path fill="#C52959" d="M25 76c2 2 2 2 2.313 4.875-.34 3.389-1.041 4.664-3.313 7.125v-3h-2c-.187-3.375-.187-3.375 0-7z"/><path fill="#792A41" d="m250 195 4 1-2.047 1.39-2.703 1.86-2.672 1.828c-2.432 1.813-4.495 3.722-6.578 5.922l-2-2h3l-1-3h3l1-2a102 102 0 0 1 3-3l2 1z"/><path fill="#0A9AF7" d="M117 137c2 1 2 1 3 2 .072 1.52.084 3.042.063 4.563l-.028 2.503L120 148h-4c-.125-7.625-.125-7.625 1-11"/><path fill="#91627C" d="m346 112 1 3 3 1c1 5.75 1 5.75 1 8h11v1l-12 1c-1.316-3.62-2-6.096-2-10h-2v-2l-2-1z"/><path fill="#87495D" d="M99 185h2l1.813 2.313c2.21 2.715 4.12 4.068 7.187 5.687-3.642 1.214-4.332.667-7.687-.937l-2.45-1.153L98 190z"/><path fill="#2EA9DE" d="M202 138h1l.184 2.117.254 2.758c.08.905.162 1.81.246 2.742.186 2.394.186 2.394 1.316 4.383l3 1-.07-1.898-.055-2.477-.07-2.46C208 142 208 142 210 140l-1 12h-7z"/><path fill="#145085" d="m111 132 3 1c.054 1.791.093 3.583.125 5.375l.07 3.023C114 144 114 144 112 146c-1-1-1-1-1.098-3.941l.035-3.621.028-3.63zm1 9 1 2Z"/><path fill="#40A1D3" d="M189 131h8v17h-1v-15l-5 1-2 3z"/><path fill="#AD3E68" d="m203 85 3 2-1 6h-2v6l-2-4-2 1q.716-2.188 1.438-4.375l.808-2.46C202 87 202 87 203 85"/><path fill="#8A3756" d="m261 90 2 1q.039 2.219.063 4.438l.035 2.496C263 100 263 100 262 101c-3.437-.187-3.437-.187-7-1-1.437-2.062-1.437-2.062-2-4h2l1 2c2.527.656 2.527.656 5 1z"/><path fill="#882E48" d="m25 40 1 2-1 2 2 1-3 1 .125 3.875c.07 2.18.07 2.18-.125 4.125l-2 2c-1.435-6.696-.59-10.206 3-16"/><path fill="#1E6182" d="M184 137h1q.04 3.969.063 7.938l.025 2.287A183 183 0 0 1 185 153c-1 1-1 1-4.562 1.063L177 154l-1-4 8 2z"/><path fill="#C05781" d="M335 81h3l-1 8-5 1c.75-6.75.75-6.75 3-9"/><path fill="#883152" d="M306 176c2.937.63 5.338 1.624 8 3q-3.343.506-6.687 1l-3.762.563c-2.91.358-5.628.526-8.551.437l3-2v-2l7 1z"/><path fill="#C83564" d="m103 161 8 1v2l2 1-1 3a85 85 0 0 1-7-2l1-1-5-1z"/><path fill="#2E9BD8" d="m140 134 3 1-2 3c-.242 2.516-.242 2.516-.125 5.188l.055 2.73L141 148l-3-1a351 351 0 0 1-.125-4.812l-.07-2.708C138 137 138 137 140 134"/><path fill="#359FCF" d="m279 133 3 1v8h-4c-.098-6.152-.098-6.152 0-8z"/><path fill="#962547" d="m36 124 4 1a340 340 0 0 1-2.375 3.5l-1.336 1.969L35 132h-2l-.375 1.938L32 136l-2 1 1-8 4 1z"/><path fill="#AB446D" d="M336 99c2.729.033 5.297.564 8 1-3.124 2.523-6.38 4.273-10 6-.125-2.375-.125-2.375 0-5z"/><path fill="#A24D6F" d="m336 72 1 4 3-2 2-1c-.75 7.625-.75 7.625-3 11l-1-6-1 2h-2z"/><path fill="#CA295F" d="m250 64 1 2 6-1c1.333 2.667.671 4.167 0 7l-3-2h-4z"/><path fill="#83354D" d="m153 190-1 3a609 609 0 0 1-6.312.125l-3.551.07C139 193 139 193 136 191l3.563.125c2.988.016 5.462-.293 8.312-1.187C151 189 151 189 153 190"/><path fill="#892A4A" d="m365 166 4 1c-5.362 2.614-10.034 4.492-16 5v-2h4v-2c3.287-.8 4.71-1.097 8 0z"/><path fill="#AC536F" d="M355 165v2l3 1c-2.51 1.255-4.647 1.402-7.437 1.688-.969.106-1.937.213-2.934.324C345 170 345 170 342 168a895 895 0 0 1 4.813-1.5l2.707-.844C352 165 352 165 355 165"/><path fill="#1299EF" d="M131 132h1c1.036 5.05 1.103 9.874 1 15l-3 1z"/><path fill="#612A47" d="M179 115h1l1 9 5 1 1-6 2 1-1 6-6 1c-2.985-4.105-3.295-6.977-3-12"/><path fill="#721A32" d="M35 178c5.65.997 10.553 2.237 15 6-5.774-.481-9.959-2.185-15-5z"/><path fill="#A84967" d="M98 176v8h-2v-3l-7-1c2.899-2.299 5.15-4 9-4"/><path fill="#A12449" d="m22 161 1 2 2 1 1 3 5-2v5l-2 1-2-1v-2l-4-1z"/><path fill="#6B1B33" d="M98 152c2.12 3.534 2.532 6.944 3 11l6 1-1 2c-6.875-.875-6.875-.875-8-2v-7l-1-3z"/><path fill="#163A57" d="m238 146 5 1-1 2-3-1v4l2 1-3 3v-2h-10l2-2c2.729.033 5.297.564 8 1z"/><path fill="#034A80" d="m174 139 2 1v12l-3 1q-.04-3.22-.062-6.437l-.036-3.622C173 140 173 140 174 139m0 4 1 3Z"/><path fill="#772840" d="m94 126 2 1-1 3 5-1v9h-1v-7l-6 2v-4l-2-1z"/><path fill="#A7536F" d="M385 105c4.75 4.236 7.772 8.432 8.188 14.938L393 122c-3.336-2.426-3.637-5.26-4.46-9.066-.68-2.433-1.922-4.022-3.54-5.934z"/><path fill="#832541" d="m23 56 4 2-.187 2.313c-.072 2.732-.072 2.732 1.687 4.5L30 66c-2.621 0-4.51-.313-7-1l.563-2.812c.678-3.201.678-3.201-.563-6.188"/><path fill="#63454F" d="M216 196c3.354 1.388 5.113 2.886 7 6v3l-4-2v-2l-3-1z"/><path fill="#B14F94" d="m237 156 2 1v2l-4 1-.375 2.125c-.663 3.052-1.597 5.928-2.625 8.875h-1c-.723-6.869-.723-6.869 1.336-10.09A72 72 0 0 1 237 156"/><path fill="#3FA7DD" d="M271 148c7.429-.286 7.429-.286 11 2v3l-9-1v-3z"/><path fill="#37BEE6" d="m327 135 3 1v4c1.975-.348 1.975-.348 4-1l1-2v5c-2.812.25-2.812.25-6 0-1.937-1.812-1.937-1.812-3-4z"/><path fill="#45A1C6" d="M302 133h8l2 5h-7l1-3h-4z"/><path fill="#5995A6" d="M321 128c3.161 1.37 3.993 1.99 6 5l2 1-2 2h-3v-3h-3z"/><path fill="#DC5A8D" d="m336 100-1.68.77-2.195 1.043-2.18 1.019c-2.25 1.163-2.25 1.163-3.945 4.168l-2-2h2l.188-2.375C327 100 327 100 329.313 98.563c3.157-.661 3.97-.098 6.687 1.437"/><path fill="#D35285" d="M375 98c2.95 1.37 5.525 2.878 8 5v2c-2.375.125-2.375.125-5 0l-4-4z"/><path fill="#79415B" d="M316 18c5.45.826 10.515 2.097 14 6.563L331 27l-1 2-1.54-1.426c-3.97-3.591-7.524-6.476-12.46-8.574z"/><path fill="#D22156" d="M105 169c3.297.33 4.623.623 7 3l-4 1v2c-1.937-.312-1.937-.312-4-1l-1-3z"/><path fill="#E234AC" d="m239 157 1 3c-.96.773-.96.773-1.937 1.563-2.62 3.096-2.757 5.458-3.063 9.437h-3c-.391-4.437.615-7.252 3-11 2.188-.875 2.188-.875 4-1z"/><path fill="#08A2F2" d="M156 142h2v9h-4c.875-7.875.875-7.875 2-9"/><path fill="#37B4DC" d="M314 136c3 1 3 1 5 4v4c-3.875-.875-3.875-.875-5-2-.04-2-.043-4 0-6"/><path fill="#7E3C54" d="M166 91c2.063.438 2.063.438 4 1v5h-4a88 88 0 0 1-1-5z"/><path fill="#A73152" d="M80 92c0 2.156-.447 3.924-1 6l-3-1-1 2-1-3 2-3-3-1c3.133-1.044 3.99-.934 7 0"/><path fill="#B63E5E" d="M32 53h3q.546 2.371 1.063 4.75l.597 2.672c.338 2.565.152 4.149-.66 6.578h-2V57l-4-1 2-1z"/><path fill="#C88DAF" d="m350 136 13 2c-2 2-2 2-5.937 2.188-2.74-.026-4.403-.301-7.063-1.188z"/><path fill="#266990" d="M188 125c4.3.478 6.217 1.702 9 5v1h-8v-3z"/><path fill="#CB3A67" d="m61 100-2 5-7 1c0-2 0-2 1.25-3.562C55.716 100.412 57.853 100 61 100"/><path fill="#CA3E69" d="m26 81 4 2-2 6h-2l-1 5-2-2 .656-1.898.844-2.477.844-2.46c.753-2.107.753-2.107.656-4.165"/><path fill="#8B304C" d="M30 81h4c-.515 5.281-2.255 8.572-5 13l-1-2 .938-2.25C30.133 86.656 30.153 84.288 30 81"/><path fill="#894C65" d="M180 74c2.063.438 2.063.438 4 1v5h-5a100 100 0 0 1 0-5z"/><path fill="#CC4B7B" d="M339 66h3c.125 6.625.125 6.625-1 10h-3z"/><path fill="#A13A5A" d="m29 66 5 1-.562 1.75c-.478 2.457-.195 3.894.562 6.25l-2 1-2-1c-.414-2.066-.414-2.066-.625-4.562l-.227-2.504z"/><path fill="#6E2035" d="m267 183 2 1q2.495 1.01 5 2c-2.918 1.945-4.625 2.453-8 3l1-3h-6c3-2 3-2 6-3"/><path fill="#973A5B" d="M375 159h5c-2.752 2.956-5.42 5.116-9 7h-2v-3l6-2z"/><path fill="#358EB0" d="M308 139h4c-1.875 4.875-1.875 4.875-3 6-2 .04-4 .043-6 0l-1-2 6-2z"/><path fill="#DC2070" d="M252 132h2c1.257 2.906 2 4.796 2 8h-4a177 177 0 0 1-1-7z"/><path fill="#0E5B93" d="m123 131 2 1-1 20h-1c-.196-3.312-.38-6.625-.562-9.937l-.17-2.866-.147-2.724-.143-2.524C122 132 122 132 123 131"/><path fill="#46343B" d="m17 126 2.25 1.5c2.813 1.82 2.813 1.82 6.75 1.5v2l-5 2-6-5z"/><path fill="#4EA6DF" d="m130 123-1 3-3.75-.625c-3.37-.436-5.378-.409-8.25 1.625v-2h2v-2c3.818-1.374 7.073-.68 11 0"/><path fill="#CF285D" d="M47 111c-.75 4.75-.75 4.75-3 7h-3l1-6c3-1 3-1 5-1"/><path fill="#C64171" d="m201 94 .75 1.875c1.456 2.476 2.628 3.076 5.25 4.125-7.625 1.25-7.625 1.25-11-1l3-1c1.209-2 1.209-2 2-4"/><path fill="#902D60" d="m282 175-1 3 2 1-1 3h-3v-6l-4-1c2.667-1.333 4.167-.671 7 0"/><path fill="#AE2850" d="M114 162v2h2l1-2c.687 2.49 1 4.379 1 7h-2l-1-3c-3.512-1.23-3.512-1.23-7-2 3-2 3-2 6-2"/><path fill="#DE4D85" d="M379 145h3l-1 7-4-1c.875-4.875.875-4.875 2-6"/><path fill="#349CDB" d="m145 143 6 2v7h-6l2-1.375 2-1.625v-2h-3z"/><path fill="#9B4664" d="M392 138c1 3 1 3 .11 5.41-.45.875-.898 1.75-1.36 2.653l-1.328 2.66C388 151 388 151 385 153c.506-2.169 1-4 2-6h2l.375-1.687c.685-2.534 1.616-4.892 2.625-7.313"/><path fill="#369AE1" d="m274 135 2 1v6l-3 1v-2l-3-1z"/><path fill="#AC4D6C" d="M178 99v2h-5v2h-2l-1 3h-2c.391-2.27.887-3.834 2.188-5.75 2.599-1.793 4.735-1.455 7.812-1.25"/><path fill="#DE5C8A" d="M208 102h-2l-1 4c-5.75-1.75-5.75-1.75-8-4 7.625-1.125 7.625-1.125 11 0"/><path fill="#C94B7B" d="M288 14h8l-2 1v2l-6 1z"/><path fill="#8F4A5D" d="M234 205c.61 1.84.61 1.84 1 4-2.035 2.98-4.388 5.518-7 8 .457-5.027 2.992-8.149 6-12"/><path fill="#99445C" d="M161 185h7v3h8v1h-11l-1-2z"/><path fill="#A3415D" d="m103 166 3 1-1 3-3 1-1 2h-3c1.293-2.884 2.66-4.872 5-7"/><path fill="#AF2B52" d="M357 169c-3.212 1.906-5.539 2.223-9.25 2.125l-2.703-.055L343 171c4.643-3.095 8.649-3.416 14-2"/><path fill="#266D9B" d="m138 147 3 1v2h4v2h6v1c-8.144.626-8.144.626-11.562-1.875C138 149 138 149 138 147"/><path fill="#9C546F" d="M377 146c1 3 1 3 1 5-1.531 1.29-1.531 1.29-3.5 2.625l-1.969 1.352L371 156l-2-1z"/><path fill="#39809D" d="M277 129h5l-1.5 1c-1.775 2.367-1.651 3.181-1.562 6.063L279 140l-2 2-2-7h2z"/><path fill="#4F4A60" d="m335 132 5 1-2 11-3-1 1-1c.157-3.526.04-6.62-1-10"/><path fill="#893C6F" d="M103 126h1l3 12h-3c-1-1-1-1-1.098-3.504l.035-3.059.028-3.066z"/><path fill="#BF2C5B" d="M101 131h2l.813 3.313c1.064 3.304 1.534 4.637 4.187 6.687l-1 2c-4.228-2.907-4.228-2.907-6-5-.375-3.812-.375-3.812 0-7"/><path fill="#D5336B" d="M185 90h2c1.625 2.5 1.625 2.5 3 5-3.815 1.467-6.29.433-10-1l1.938-.875c2.214-.953 2.214-.953 3.062-3.125"/><path fill="#C56389" d="M213 83v2h2l-1 2-10-1v-2c3.153-.7 5.727-1 9-1"/><path fill="#A14260" d="M310 13v3l6 1c-3.26 1.087-5.23.988-8.625.688l-2.977-.239L302 17l-1-2c6.75-2 6.75-2 9-2"/><path fill="#9C1E58" d="M272.813 175.688 275 176c-3.08 3.672-5.248 4.568-10 5 4.308-4.923 4.308-4.923 7.813-5.312"/><path fill="#974A5F" d="M30 162c2.34 2.227 4.271 4.59 6.188 7.188l1.605 2.167L39 173c-3.066-.591-3.91-.908-6.187-3.25-1.796-2.724-2.447-4.545-2.813-7.75"/><path fill="#9F6888" d="m366 127 3 1v2h2l-1 4-1.125-1.375c-2.418-2.095-4.83-2.745-7.875-3.625l1.938-.437c2.037-.373 2.037-.373 3.062-1.563"/><path fill="#8F3250" d="M112 113c1 3 1 3-.187 5.625-1.813 2.375-1.813 2.375-4 3.188L106 122v-3l1.875-.75c2.476-1.456 3.076-2.628 4.125-5.25"/><path fill="#8C3D5B" d="m211 114 3 1v5l-4 1c-.043-2-.04-4 0-6z"/><path fill="#CD577D" d="m189 103 3 1-4 1-1 4-4 1v2l-2-1q1.432-1.724 2.875-3.437l1.617-1.934C187 104 187 104 189 103"/><path fill="#A2476B" d="M346 95c3.375.547 5.082 1.055 8 3l-10 2z"/><path fill="#A43259" d="M193 77c2 1.313 2 1.313 4 3v3h2v9h-1l-.812-3.125c-.995-3.527-2.519-6.612-4.188-9.875z"/><path fill="#993458" d="M334 173v2l3 1c-1.458.054-2.916.093-4.375.125l-2.46.07C328 176 328 176 326 174c2.709-1.354 5.01-1.065 8-1"/><path fill="#D8336D" d="m381 151 1 2-4 4-3-1c.75-1.937.75-1.937 2-4 2.125-.75 2.125-.75 4-1"/><path fill="#45BEEC" d="M232 139h3v2l-2 1 2 3h-3l-2 4c-.25-6.625-.25-6.625 2-10"/><path fill="#BA5D91" d="m342 138 1 4 3-2c3.188-.125 3.188-.125 6 0l-1.937.875c-2.215.953-2.215.953-3.063 3.125h-5z"/><path fill="#1880A7" d="M229 139v2h-4l-1 3-2-1v-4c3.133-1.044 3.99-.934 7 0"/><path fill="#1BA3E7" d="M181 134h2v13c-2.703-5.406-2.999-7.007-2-13"/><path fill="#C61C4C" d="M34 124v6l-2 1-1 3h-1c-1.344-5.377-1.344-5.377.313-8.375C32 124 32 124 34 124"/><path fill="#BA365D" d="M180 113h1l.875 3.25c.853 2.844 1.689 5.185 3.125 7.75l-2 1-2-1c-.668-2.25-.668-2.25-1.187-5l-.543-2.75L179 114z"/><path fill="#AE2853" d="m49 109 1 2h5c-1.187 1.5-1.187 1.5-3 3-2.687.188-2.687.188-5 0v-4z"/><path fill="#711F3D" d="M192 104c1 3 1 3 .438 5.375-.53 3.171.178 4.776 1.562 7.625h-3c-1.206-4.944-.63-8.209 1-13"/><path fill="#8F3152" d="M374 102h4v3l4 1-1 4c-2.648-2.578-4.944-4.916-7-8"/><path fill="#CC497C" d="M341 54c2 2 2 2 2.195 4.164l-.07 2.461-.055 2.477L343 65l-2-1c-.45-2.031-.45-2.031-.687-4.5l-.262-2.469L340 55z"/><path fill="#9C5B70" d="M201 187c4.874.453 7.39 1.709 11 5l-1 2q-2.504-1.463-5-2.937l-2.812-1.653L201 188z"/><path fill="#9B3856" d="m200 186 3 1-1 1 4 2v1l-10-1z"/><path fill="#A94364" d="m200 185-1 4-3-1c-2.143.39-2.143.39-4 1v-3c2.892-.826 4.887-1 8-1"/><path fill="#C4678B" d="m295.066 175.902 2.497.036 2.503.027L302 176l-4 1v2h-10l4-2c1-1 1-1 3.066-1.098"/><path fill="#AC2147" d="M33 170c3 1.75 3 1.75 6 4v4h-4z"/><path fill="#2A3864" d="m266 142 1 2h7l-1.937.375L270 145l-1 2-2-1-1 3-2-2z"/><path fill="#07A4FA" d="m151 133 5 3-1 3-7-4z"/><path fill="#61404C" d="M13 119c2.463 2.463 2.998 4.707 4 8h-3c-1.75-2.375-1.75-2.375-3-5 1-2 1-2 2-3"/><path fill="#3D689E" d="m111.91 120.488 2.153.825 2.16.8C118 123 118 123 119 125l-10-1-1-3c2-1 2-1 3.91-.512"/><path fill="#B02958" d="m323 110 3 3-2 2h-2q-2.008.47-4 1c1.37-3.161 1.99-3.993 5-6"/><path fill="#8A2746" d="M65 105c-3.124 2.523-6.38 4.273-10 6v-3c3.374-2.603 5.77-3.363 10-3"/><path fill="#6C1D39" d="M20 78h1l1 7h2l-1 4v-2h-2l-2 3a100 100 0 0 1 0-5l1-1c.04-2 .043-4 0-6"/><path fill="#F922B7" d="m235 166 5 1v4l-3 1z"/><path fill="#C15493" d="m263 146 1 2 2.438.938C269 150 269 150 271 153c-6.646-1.477-6.646-1.477-8.437-4.125L262 147z"/><path fill="#19B3ED" d="M232 146h2v2h3v3c-1.937.563-1.937.563-4 1-1-1-1-1-1.062-3.562z"/><path fill="#25AFE4" d="m235 139 3 1v2h2v2c-2.875.125-2.875.125-6 0l-2-2 3-1z"/><path fill="#D75D9E" d="M343 137h5l1 3-6 2z"/><path fill="#863F55" d="m22 131 3 1c-.48 4.992-.888 6.85-4 11z"/><path fill="#70223E" d="M207 112h7v1h-6l2 2c.125 2.625.125 2.625 0 5h-2c-1.354-2.709-1.065-5.01-1-8"/><path fill="#962948" d="M76 97h9v1a665 665 0 0 1-4.312 1.5l-2.426.844C76 101 76 101 73 101v-2h3z"/><path fill="#B6446D" d="M197 86h1a340 340 0 0 1-.375 4.313c-.07.8-.14 1.6-.21 2.425C197 95 197 95 195 98h-2v-4h3z"/><path fill="#C789A1" d="m317 13 8 4v3l-10-5z"/><path fill="#6F253B" d="m98 178 1 2 2 1h-2l.688 1.813L100 185c-1.437 1.75-1.437 1.75-3 3l-1-4h2l-.562-2.437L97 179z"/><path fill="#9A274C" d="M108 173h5a141 141 0 0 1-5 5h-2l-1-3h3z"/><path fill="#7A7899" d="M245 144h3v2l2 1-6 3c0-4 0-4 1-6"/><path fill="#1E90E2" d="M111 124h6l1 2h2v2c-6.75-.875-6.75-.875-9-2z"/><path fill="#75606B" d="M339 119h1v8l-5-2v-4l3 1z"/><path fill="#A83E65" d="m322 113 2 1c-1.27 3.914-2.512 5.79-6 8a85 85 0 0 1 2-7h2z"/><path fill="#E02B69" d="m185 111 4 2v2l-7 3 .938-1.812c1.164-2.278 1.164-2.278 2.062-5.188"/><path fill="#93546C" d="M204 76h4v5h-4z"/><path fill="#893E52" d="M30 32h2c-.542 3.796-2.201 5.472-5 8 0-3.599.958-5.095 3-8"/><path fill="#954C69" d="M332 30h3c1.75 2.375 1.75 2.375 3 5l-1 2-3-1c-1.187-3.062-1.187-3.062-2-6"/><path fill="#CC6B90" d="m270 23 1 2h-2v2a91 91 0 0 1-4 4l-2-1c1.88-3.571 3.17-5.547 7-7"/><path fill="#A23652" d="m268 186-2 1v2h-6l1-3c2.944-1.178 3.9-1.033 7 0"/><path fill="#DD1562" d="m261 177 5 2-1 2h-8z"/><path fill="#DE2D95" d="M239 178c5.538.615 5.538.615 7.875 2.563L248 182l-3 1-2-1v-2l-4-1z"/><path fill="#A74E6F" d="M299 175h6v4l-5-1z"/><path fill="#653245" d="M124 165h2l1 8h-3c-1.125-5.75-1.125-5.75 0-8"/><path fill="#F127B5" d="M242 155c2.063.438 2.063.438 4 1l-1 3-5 1c.875-3.875.875-3.875 2-5"/><path fill="#D83571" d="m385 137 2 1c1.425 7.363 1.425 7.363-1 11q-.251-2.437-.5-4.875l-.281-2.742C385 139 385 139 385 137"/><path fill="#983651" d="M29 123c2.063.438 2.063.438 4 1-2.462 3.815-2.462 3.815-5.187 4.75L26 129c1.875-4.875 1.875-4.875 3-6"/><path fill="#A14862" d="m34 117 2 4h-3v2h-2l-1 2c.498-3.688 1.1-5.605 4-8"/><path fill="#A03259" d="M216.5 109.875 218 111c-2.434 1.217-4.418 1.32-7.125 1.563l-2.758.253L206 113v-2c7.385-2.215 7.385-2.215 10.5-1.125"/><path fill="#A85476" d="M216 94h4v5l-4-1z"/><path fill="#8D334F" d="m215 90 1 2c-1.187 3.063-1.187 3.063-3 6-2.187.875-2.187.875-4 1l2-4h2z"/><path fill="#722536" d="M34 37h1l-1 12c-2-2-2-2-2.25-4.312.27-2.893 1.047-5.057 2.25-7.688"/><path fill="#7A2135" d="m262 187 1 2 3 1a101 101 0 0 1-6 3l-2-1 2-3h2z"/><path fill="#B9385F" d="m182 185 10 1v1l-10 1z"/><path fill="#B13763" d="m114 151 6 3v3c-2.437-.75-2.437-.75-5-2-.812-2.125-.812-2.125-1-4"/><path fill="#C62D5E" d="M27 137h3l-2 8h-2z"/><path fill="#643745" d="m33 132 7 3c-1.312 1.5-1.312 1.5-3 3h-3v-2l-2-1z"/><path fill="#7A2642" d="M93 133c-2.262 2.262-3.97 3.04-7 4l-3-1c2.705-3.818 5.62-3.248 10-3"/><path fill="#87697D" d="M263 127h5v4c-1.937-.312-1.937-.312-4-1z"/><path fill="#A37E90" d="M340 120h1v5h2v4l-4-1z"/><path fill="#453459" d="m195 117 4 1 2 7-3 1-.375-2.812c-.44-3.327-.44-3.327-2.625-6.188"/><path fill="#A44B6E" d="M325 101c.687 2.49 1 4.379 1 7l-5 1c1.125-2.972 2.223-5.334 4-8"/><path fill="#80334D" d="m170 84 2 1c.414 2.066.414 2.066.625 4.563l.227 2.503L173 94c-2.354-2.55-2.983-3.71-3.187-7.25z"/><path fill="#BE385D" d="m30 36 1 2 2 1-3 1-2 3-3-1z"/><path fill="#A52646" d="M32 32h2v9l-1-3h-2z"/><path fill="#5F1E32" d="M99 190c3.775 1.09 6.47 1.908 9 5l-2 1a698 698 0 0 1-3.5-2.437l-1.969-1.372L99 191z"/><path fill="#A64A6B" d="M330 170h6v3l2 1-4 1v-4z"/><path fill="#DB2987" d="M280 166h2l1 6-4 1 2-1v-2h-2z"/><path fill="#CF3D74" d="m361 164 4 1v3h-5l-1-2h2z"/><path fill="#734C81" d="M113 146c4.875 4.75 4.875 4.75 6 7-2.437-.687-2.437-.687-5-2-.812-2.625-.812-2.625-1-5"/><path fill="#599CB3" d="M228 130c-4.44 2.96-4.44 2.96-7 4l-3-1c3.318-3.063 5.552-3.303 10-3"/><path fill="#B74976" d="m371 96 4 2-1 4-3-1z"/><path fill="#C06086" d="M370 94v2c-2.312.688-2.312.688-5 1-1.812-1.437-1.812-1.437-3-3 5.75-1.125 5.75-1.125 8 0"/><path fill="#B86481" d="M72 94c-1 2-1 2-3.375 3.188C66 98 66 98 63 97h2v-2c2.463-1.231 4.28-1.072 7-1"/><path fill="#651530" d="M185 79h1l.313 3.375L187 86l3 2v2c-3.875-1.875-3.875-1.875-5-3-.141-2.67-.042-5.324 0-8"/><path fill="#BC4B76" d="M253 43c2 2 2 2 2.125 5.125L255 51l-2 1c-1.108-3.325-.845-5.622 0-9"/></svg>